<?xml version="1.0" standalone="no"?>
<!DOCTYPE svg PUBLIC "-//W3C//DTD SVG 20010904//EN"
 "http://www.w3.org/TR/2001/REC-SVG-20010904/DTD/svg10.dtd">
<svg version="1.0" xmlns="http://www.w3.org/2000/svg"
 width="1024.000000pt" height="1024.000000pt" viewBox="0 0 1024.000000 1024.000000"
 preserveAspectRatio="none">

<g transform="translate(0.000000,1024.000000) scale(0.100000,-0.100000)"
fill="#C9C9C9" stroke="none">
<path d="M0 5120 l0 -5120 5120 0 5120 0 0 5120 0 5120 -5120 0 -5120 0 0
-5120z m4003 4870 c243 -152 636 -223 1242 -223 606 0 999 71 1242 223 35 22
72 40 82 40 10 0 89 -18 177 -39 811 -201 2121 -757 2719 -1156 114 -76 271
-199 287 -225 7 -11 -19 -64 -96 -200 -121 -211 -347 -654 -430 -842 -223
-507 -354 -942 -408 -1353 -21 -162 -15 -515 10 -656 27 -147 71 -285 135
-422 l50 -107 -26 -123 c-50 -229 -80 -460 -92 -697 -6 -110 23 -2554 41
-3432 l6 -328 -3697 0 -3697 0 6 302 c17 778 47 3337 41 3453 -12 245 -41 467
-91 702 l-26 121 47 104 c90 193 133 353 155 567 70 694 -226 1635 -862 2741
-66 114 -87 159 -80 170 16 26 174 150 287 225 509 337 1499 780 2345 1050
159 51 512 144 547 145 12 0 51 -18 86 -40z"/>
</g>
</svg>
