<?xml version="1.0" encoding="UTF-8"?>
<!DOCTYPE svg PUBLIC "-//W3C//DTD SVG 1.1//EN" "http://www.w3.org/Graphics/SVG/1.1/DTD/svg11.dtd">
<svg xmlns="http://www.w3.org/2000/svg" version="1.1" width="1024px" height="1024px" style="shape-rendering:geometricPrecision; text-rendering:geometricPrecision; image-rendering:optimizeQuality; fill-rule:evenodd; clip-rule:evenodd" xmlns:xlink="http://www.w3.org/1999/xlink">
<g><path style="opacity:0.989" fill="#e4e5e4" d="M 361.5,47.5 C 365.007,46.9935 368.174,47.6602 371,49.5C 394.272,99.8347 429.106,140.335 475.5,171C 486.353,178.528 497.687,185.195 509.5,191C 511.167,191.667 512.833,191.667 514.5,191C 556.372,168.465 592.206,138.631 622,101.5C 633.452,85.6058 643.118,68.6058 651,50.5C 652.255,48.4062 654.088,47.4062 656.5,47.5C 676.102,52.0671 695.435,57.5671 714.5,64C 716.5,65.6667 718.5,67.3333 720.5,69C 721.899,69.5946 723.232,69.4279 724.5,68.5C 725.874,69.7113 727.374,70.7113 729,71.5C 730.868,70.2899 732.368,70.7899 733.5,73C 738.364,73.2286 743.03,74.7286 747.5,77.5C 749.392,74.9557 751.225,74.9557 753,77.5C 753.561,76.9781 754.228,76.6448 755,76.5C 758.221,77.5276 761.388,78.6942 764.5,80C 766.208,81.0623 766.874,82.229 766.5,83.5C 769.026,81.0807 770.86,81.7473 772,85.5C 773.133,83.7888 774.633,83.2888 776.5,84C 779.833,86.6667 783.167,89.3333 786.5,92C 789.007,92.0929 791.174,92.9262 793,94.5C 793.333,94.1667 793.667,93.8333 794,93.5C 795.572,95.5628 797.405,96.2294 799.5,95.5C 805.298,98.2784 810.798,100.945 816,103.5C 816.414,103.043 816.914,102.709 817.5,102.5C 822.27,105.806 827.27,108.639 832.5,111C 847.61,117.334 862.61,123.668 877.5,130C 884.39,135.486 892.056,139.652 900.5,142.5C 902.322,141.571 903.655,142.238 904.5,144.5C 911.409,147.869 917.909,151.869 924,156.5C 924.414,156.043 924.914,155.709 925.5,155.5C 926.833,156.5 928.167,157.5 929.5,158.5C 930.086,158.291 930.586,157.957 931,157.5C 936.015,161.684 940.848,166.017 945.5,170.5C 952.752,175.042 959.919,179.709 967,184.5C 967.667,183.833 968.333,183.167 969,182.5C 971.846,184.257 974.512,186.257 977,188.5C 977.52,190.289 977.187,191.956 976,193.5C 971.831,199.166 968.165,205.166 965,211.5C 963.167,213.333 961.333,215.167 959.5,217C 959.833,217.333 960.167,217.667 960.5,218C 959.206,220.087 958.039,222.254 957,224.5C 955.829,225.893 954.329,226.727 952.5,227C 953.041,229.865 951.707,231.865 948.5,233C 948.957,233.414 949.291,233.914 949.5,234.5C 948.5,235.833 947.5,237.167 946.5,238.5C 947.959,241.751 946.959,244.085 943.5,245.5C 944.668,246.906 944.335,248.072 942.5,249C 943.276,250.77 943.11,252.603 942,254.5C 939.006,261.83 935.006,268.497 930,274.5C 929.667,274.167 929.333,273.833 929,273.5C 928.527,275.779 927.527,277.779 926,279.5C 927.246,286.431 925.246,292.431 920,297.5C 918.531,300.658 917.531,303.991 917,307.5C 914.327,309.356 913.827,311.689 915.5,314.5C 912.307,327.264 907.474,339.264 901,350.5C 897.779,362.38 895.113,374.38 893,386.5C 892.211,390.091 892.378,393.591 893.5,397C 892.313,398.019 891.313,399.186 890.5,400.5C 890.866,413.386 891.533,426.386 892.5,439.5C 891.937,445.999 891.27,452.332 890.5,458.5C 891.5,459.833 892.5,461.167 893.5,462.5C 892.48,464.432 892.313,466.432 893,468.5C 895.065,479.067 899.232,488.567 905.5,497C 906.784,497.684 907.951,497.517 909,496.5C 916.168,504.668 925.002,510.168 935.5,513C 936.687,514.019 937.687,515.186 938.5,516.5C 937.42,522.66 934.753,527.993 930.5,532.5C 930.977,533.478 931.643,534.311 932.5,535C 931.101,536.062 930.101,537.395 929.5,539C 929.475,541.679 929.475,544.346 929.5,547C 928.802,549.454 927.802,551.787 926.5,554C 927.542,557.095 928.209,560.595 928.5,564.5C 927.052,569.569 926.052,574.735 925.5,580C 926.973,586.651 927.64,593.484 927.5,600.5C 927.68,617.64 927.346,634.807 926.5,652C 927.096,669.164 927.596,686.33 928,703.5C 928.759,706.626 929.259,709.793 929.5,713C 927.479,723.79 927.146,734.623 928.5,745.5C 928.251,752.534 927.251,759.368 925.5,766C 925.826,768.663 926.659,771.163 928,773.5C 928.719,817.838 929.552,862.172 930.5,906.5C 930.533,912.53 929.533,918.363 927.5,924C 930.007,933.626 931.007,943.459 930.5,953.5C 930.333,960.167 930.167,966.833 930,973.5C 929.5,974 929,974.5 928.5,975C 919.833,975.667 911.167,975.667 902.5,975C 899.878,973.195 897.211,973.195 894.5,975C 879.14,975.235 863.807,975.402 848.5,975.5C 845.46,975.583 842.627,974.916 840,973.5C 838.933,974.191 837.766,974.691 836.5,975C 791.32,975.184 746.153,975.684 701,976.5C 522.317,975.561 343.651,975.561 165,976.5C 141.515,975.702 118.015,975.202 94.5,975C 94,974.5 93.5,974 93,973.5C 92.6459,969.646 92.1459,965.812 91.5,962C 92.8153,943.144 92.8153,924.31 91.5,905.5C 92.2891,899.885 92.7891,894.218 93,888.5C 93.029,836.313 93.8624,784.147 95.5,732C 94.2584,681.158 94.2584,630.325 95.5,579.5C 93.5072,558.377 89.8405,537.543 84.5,517C 84.4393,515.289 85.1059,513.956 86.5,513C 109.199,505.151 122.699,489.318 127,465.5C 128.427,458.366 129.594,451.199 130.5,444C 130.998,402.827 124.165,362.66 110,323.5C 93.1553,276.647 71.6553,232.147 45.5,190C 48.1168,186.38 51.1168,183.047 54.5,180C 80.3339,162.539 107.001,146.206 134.5,131C 182.822,107.555 232.489,87.2213 283.5,70C 309.596,62.2935 335.596,54.7935 361.5,47.5 Z"/></g>
</svg>
