<?xml version="1.0" standalone="no"?>
<!DOCTYPE svg PUBLIC "-//W3C//DTD SVG 20010904//EN"
 "http://www.w3.org/TR/2001/REC-SVG-20010904/DTD/svg10.dtd">
<svg version="1.0" xmlns="http://www.w3.org/2000/svg"
 width="1024.000000pt" height="1024.000000pt" viewBox="0 0 1024.000000 1024.000000"
 preserveAspectRatio="none">

<g transform="translate(0.000000,1024.000000) scale(0.100000,-0.100000)"
fill="#C9C9C9" stroke="none">
<path d="M0 5120 l0 -5120 5120 0 5120 0 0 5120 0 5120 -5120 0 -5120 0 0
-5120z m3840 4594 c34 -82 152 -285 233 -398 246 -347 609 -669 1045 -928 64
-37 121 -68 127 -68 17 0 244 137 367 222 190 131 320 240 493 413 239 239
390 443 513 697 44 91 61 117 77 118 24 0 337 -82 554 -146 1070 -314 2064
-783 2630 -1240 2 -2 -24 -47 -57 -101 -498 -815 -792 -1668 -794 -2308 -1
-170 11 -274 44 -395 58 -214 184 -371 349 -436 l66 -26 -29 -121 c-98 -412
-101 -524 -68 -2822 11 -759 20 -1435 20 -1502 l0 -123 -4165 0 -4165 0 0 113
c0 61 9 733 20 1492 33 2315 30 2435 -69 2847 l-28 116 67 26 c177 70 315 258
364 499 116 562 -105 1439 -587 2328 -53 97 -128 229 -168 293 -39 65 -70 118
-68 120 2 2 51 38 108 80 649 480 1638 921 2751 1225 219 60 297 79 326 80 17
1 26 -11 44 -55z"/>
</g>
</svg>
