<?xml version="1.0" encoding="UTF-8"?>
<svg id="Layer_1" data-name="Layer 1" xmlns="http://www.w3.org/2000/svg" xmlns:xlink="http://www.w3.org/1999/xlink" viewBox="0 0 248 982.14">
  <defs>
    <style>
      .cls-1 {
        fill: #000;
        stroke: #1d1d1b;
        stroke-width: 7px;
      }

      .cls-1, .cls-2 {
        stroke-miterlimit: 10;
      }

      .cls-2 {
        fill: url(#Unbenannter_Verlauf_22);
        stroke: #114a7b;
        stroke-width: 6px;
      }

      .cls-3, .cls-4, .cls-5, .cls-6 {
        fill: #3b414a;
        stroke-width: 0px;
      }

      .cls-4 {
        opacity: .7;
      }

      .cls-4, .cls-6 {
        isolation: isolate;
      }

      .cls-5 {
        fill-rule: evenodd;
      }

      .cls-7 {
        opacity: .84;
      }

      .cls-6 {
        opacity: .4;
      }
    </style>
    <linearGradient id="Unbenannter_Verlauf_22" data-name="Unbenannter Verlauf 22" x1="3" y1="491.07" x2="245" y2="491.07" gradientUnits="userSpaceOnUse">
      <stop offset="0" stop-color="#cecfcd"/>
      <stop offset="0" stop-color="#cfd0ce"/>
      <stop offset="0" stop-color="#fefefe"/>
      <stop offset=".04" stop-color="#f9f9f9"/>
      <stop offset=".28" stop-color="#dfdfdf"/>
      <stop offset=".5" stop-color="#cecece"/>
      <stop offset=".67" stop-color="#c9c9c9"/>
    </linearGradient>
  </defs>
  <rect class="cls-2" x="3" y="3" width="242" height="976.14" rx="121" ry="121"/>
  <path class="cls-1" d="M198.99,180.99c.27,2.48-1.53,3.98-3.34,5.45-1.06.86-2.28,1.58-3.29,2.49-3.04,2.72-8.59,3.07-11.77.69-1.95-1.46-3.9-2.92-5.84-4.39-3.39-2.59-6.77-5.18-10.14-7.79-2.47-1.91-4.9-3.87-7.38-5.78-3.3-2.56-6.64-5.08-9.95-7.63-1.67-1.29-3.31-2.61-4.98-3.91-3.43-2.65-6.89-5.29-10.32-7.95-2.44-1.89-4.89-3.78-7.26-5.73-.7-.58-1.06-.56-1.77,0-3.42,2.71-6.92,5.36-10.38,8.03-1.64,1.27-3.25,2.56-4.88,3.82-3.46,2.68-6.94,5.33-10.4,8.02-2.5,1.94-4.96,3.92-7.46,5.86-3.27,2.53-6.57,5.01-9.84,7.54-2.47,1.91-4.9,3.87-7.37,5.77-1.99,1.53-3.98,3.07-6.06,4.49-2.4,1.65-7.48,1.6-9.8-.25-2.39-1.91-4.84-3.77-7.13-5.76-1.34-1.16-1.28-4.83.03-6.01,2.02-1.82,4.13-3.57,6.27-5.29,1.73-1.39,3.56-2.68,5.33-4.03,3.54-2.71,7.07-5.43,10.58-8.17,2.59-2.02,5.13-4.09,7.73-6.1,3.17-2.45,6.39-4.85,9.56-7.29,2.47-1.91,4.9-3.86,7.37-5.77,3.3-2.55,6.63-5.07,9.93-7.61,1.64-1.26,3.25-2.55,4.88-3.82,2.4-1.87,4.76-3.77,7.22-5.57,2.78-2.04,7.92-2.02,10.68.03,3.03,2.26,6,4.58,8.98,6.89,4.46,3.45,8.9,6.91,13.35,10.36,3.56,2.76,7.11,5.51,10.68,8.25,3.92,3.01,7.87,5.99,11.78,9.01,2.48,1.91,4.9,3.87,7.37,5.78,3.3,2.55,6.64,5.06,9.94,7.62,2.17,1.69,4.44,3.32,6.38,5.2.9.88,1.13,2.29,1.66,3.46-.12.03-.24.06-.36.09Z"/>
  <path class="cls-1" d="M49.01,805.57c-.27-2.53,1.53-4.05,3.34-5.55,1.06-.88,2.28-1.61,3.29-2.54,3.04-2.78,8.59-3.13,11.77-.7,1.95,1.49,3.9,2.97,5.84,4.48,3.39,2.64,6.77,5.28,10.14,7.93,2.47,1.95,4.9,3.94,7.38,5.89,3.3,2.6,6.64,5.18,9.95,7.78,1.67,1.31,3.31,2.66,4.98,3.98,3.43,2.71,6.89,5.39,10.32,8.1,2.44,1.93,4.89,3.85,7.26,5.83.7.59,1.06.57,1.77,0,3.42-2.77,6.92-5.46,10.38-8.19,1.64-1.29,3.25-2.61,4.88-3.9,3.46-2.73,6.94-5.44,10.4-8.17,2.5-1.98,4.96-4,7.46-5.97,3.27-2.57,6.57-5.11,9.84-7.68,2.47-1.95,4.9-3.94,7.37-5.88,1.99-1.56,3.98-3.12,6.06-4.58,2.4-1.68,7.48-1.63,9.8.26,2.39,1.94,4.84,3.84,7.13,5.87,1.34,1.18,1.28,4.92-.03,6.13-2.02,1.86-4.13,3.64-6.27,5.39-1.73,1.42-3.56,2.73-5.33,4.11-3.54,2.77-7.07,5.54-10.58,8.32-2.59,2.06-5.13,4.16-7.73,6.21-3.17,2.5-6.39,4.94-9.56,7.43-2.47,1.94-4.9,3.94-7.37,5.88-3.3,2.6-6.63,5.16-9.93,7.76-1.64,1.29-3.25,2.6-4.88,3.9-2.4,1.9-4.76,3.84-7.22,5.68-2.78,2.08-7.92,2.06-10.68-.03-3.03-2.3-6-4.67-8.98-7.02-4.46-3.51-8.9-7.04-13.35-10.56-3.56-2.81-7.11-5.62-10.68-8.41-3.92-3.07-7.87-6.11-11.78-9.18-2.48-1.94-4.9-3.94-7.37-5.89-3.3-2.6-6.64-5.16-9.94-7.77-2.17-1.72-4.44-3.38-6.38-5.3-.9-.89-1.13-2.33-1.66-3.52.12-.03.24-.06.36-.09Z"/>
  <g class="cls-7">
    <path class="cls-3" d="M75.78,471.81c-14.08-9.96-21.12-14.94-21.12-21.13s7.04-11.17,21.12-21.13l19.91-14.09c14.08-9.96,21.12-14.94,29.86-14.94s15.79,4.98,29.86,14.94l19.91,14.09c14.08,9.96,21.12,14.94,21.12,21.13s-7.04,11.17-21.12,21.13l-19.91,14.09c-14.08,9.96-21.12,14.94-29.86,14.94s-15.79-4.98-29.86-14.94l-19.91-14.09Z"/>
    <path class="cls-5" d="M54.66,450.68c0,6.19,7.04,11.17,21.12,21.13l19.91,14.09c14.08,9.96,21.12,14.94,29.86,14.94s15.79-4.98,29.86-14.94l19.91-14.09c14.08-9.96,21.12-14.94,21.12-21.13s-7.04-11.17-21.12-21.13l-19.91-14.09c-14.08-9.96-21.12-14.94-29.86-14.94s-15.79,4.98-29.86,14.94l-19.91,14.09c-14.08,9.96-21.12,14.94-21.12,21.13Z"/>
    <path class="cls-4" d="M81.36,475.76l-5.58,3.95c-14.08,9.96-21.12,14.94-21.12,21.13s7.04,11.17,21.12,21.13l19.91,14.09c14.08,9.96,21.12,14.94,29.86,14.94s15.79-4.98,29.86-14.94l19.91-14.09c14.08-9.96,21.12-14.94,21.12-21.13s-7.04-11.17-21.12-21.13l-5.58-3.95-14.33,10.14c-14.08,9.96-21.12,14.94-29.86,14.94s-15.79-4.98-29.86-14.94l-14.33-10.14Z"/>
    <path class="cls-6" d="M81.36,525.92l-5.58,3.95c-14.08,9.96-21.12,14.94-21.12,21.13s7.04,11.17,21.12,21.13l19.91,14.09c14.08,9.96,21.12,14.94,29.86,14.94s15.79-4.98,29.86-14.94l19.91-14.09c14.08-9.96,21.12-14.94,21.12-21.13s-7.04-11.17-21.12-21.13l-5.58-3.95-14.33,10.14c-14.08,9.96-21.12,14.94-29.86,14.94s-15.79-4.98-29.86-14.94l-14.33-10.14Z"/>
  </g>
</svg>