<?xml version="1.0" standalone="no"?>
<!DOCTYPE svg PUBLIC "-//W3C//DTD SVG 20010904//EN"
 "http://www.w3.org/TR/2001/REC-SVG-20010904/DTD/svg10.dtd">
<svg version="1.0" xmlns="http://www.w3.org/2000/svg"
 width="1024.000000pt" height="1024.000000pt" viewBox="0 0 1024.000000 1024.000000"
 preserveAspectRatio="none">

<g transform="translate(0.000000,1024.000000) scale(0.100000,-0.100000)"
fill="#C9C9C9" stroke="none">
<path d="M0 5120 l0 -5120 5120 0 5120 0 0 5120 0 5120 -5120 0 -5120 0 0
-5120z m4995 2424 c1245 -86 2155 -330 2705 -724 221 -158 342 -291 482 -525
l36 -60 -74 -675 -74 -675 0 -682 0 -683 -3100 0 -3100 0 0 672 0 673 -106
665 c-75 477 -112 685 -130 735 -37 102 -44 152 -33 229 18 130 80 236 205
356 417 398 1393 673 2519 710 263 8 356 6 670 -16z"/>
</g>
</svg>
