<svg width="3526" height="1297" viewBox="0 0 3526 1297" fill="none" xmlns="http://www.w3.org/2000/svg">
<path opacity="0.995" fill-rule="evenodd" clip-rule="evenodd" d="M88.5004 1144.5C89.4964 1144.59 90.3294 1144.25 91.0004 1143.5C91.3334 1141.17 91.6674 1138.83 92.0004 1136.5C93.0114 1135.66 94.1784 1135.33 95.5004 1135.5C95.3434 1134.13 95.5104 1132.79 96.0004 1131.5C98.3444 1129.29 99.8444 1126.63 100.5 1123.5C101.5 1123.5 102.5 1123.5 103.5 1123.5C103.144 1120.44 103.977 1117.77 106 1115.5C106.333 1115.83 106.667 1116.17 107 1116.5C107.993 1113.15 109.66 1110.15 112 1107.5C112.49 1106.21 112.657 1104.87 112.5 1103.5C113.5 1103.5 114.5 1103.5 115.5 1103.5C115.5 1101.83 115.5 1100.17 115.5 1098.5C116.833 1098.5 118.167 1098.5 119.5 1098.5C119.5 1096.17 119.5 1093.83 119.5 1091.5C120.93 1091.58 122.264 1091.25 123.5 1090.5C124.474 1088.26 124.808 1085.92 124.5 1083.5C125.833 1083.5 127.167 1083.5 128.5 1083.5C128.149 1081.13 127.982 1078.8 128 1076.5C129.011 1077.34 130.178 1077.67 131.5 1077.5C131.838 1075.15 132.338 1072.81 133 1070.5C133.414 1070.96 133.914 1071.29 134.5 1071.5C135.253 1068.73 136.253 1066.06 137.5 1063.5C139.531 1062.46 140.864 1060.79 141.5 1058.5C142.086 1058.71 142.586 1059.04 143 1059.5C143.664 1053.03 146.664 1048.03 152 1044.5C152.494 1042.87 152.66 1041.2 152.5 1039.5C153.822 1039.67 154.989 1039.34 156 1038.5C156.241 1035.71 156.908 1033.04 158 1030.5C159.364 1031.26 160.531 1030.76 161.5 1029C160.833 1028.33 160.167 1027.67 159.5 1027C160.905 1025.73 162.571 1025.23 164.5 1025.5C164.338 1023.47 164.505 1021.47 165 1019.5C166.011 1018.66 167.178 1018.33 168.5 1018.5C168.34 1016.8 168.506 1015.13 169 1013.5C172.315 1011.59 173.649 1008.93 173 1005.5C175.744 1007.06 176.577 1006.56 175.5 1004C175.944 1000.88 177.611 999.049 180.5 998.499C180.201 996.399 180.534 994.399 181.5 992.499C182.425 993.639 183.259 993.639 184 992.499C184.333 990.499 184.667 988.499 185 986.499C186.509 985.909 188.009 985.239 189.5 984.499C188.752 982.579 188.752 980.579 189.5 978.499C192.534 978.389 193.534 977.059 192.5 974.499C193.689 973.569 195.022 973.239 196.5 973.499C196.338 971.469 196.505 969.469 197 967.499C200 965.389 202.5 962.889 204.5 959.999C204.167 959.669 203.833 959.329 203.5 958.999C204.866 957.399 205.866 955.569 206.5 953.499C207.086 953.709 207.586 954.039 208 954.499C208.333 951.829 208.667 949.169 209 946.499C210.356 945.619 211.856 945.289 213.5 945.499C213.5 944.169 213.5 942.829 213.5 941.499C214.5 941.499 215.5 941.499 216.5 941.499C216.332 937.249 217.999 934.089 221.5 931.999C220.978 931.439 220.645 930.769 220.5 929.999C221.581 928.629 222.415 927.129 223 925.499C223.333 925.829 223.667 926.169 224 926.499C223.816 923.219 225.316 921.219 228.5 920.499C229.474 918.259 229.808 915.919 229.5 913.499C230.833 913.499 232.167 913.499 233.5 913.499C233.567 911.599 233.233 909.769 232.5 907.999C232.833 907.499 233.167 906.999 233.5 906.499C234.167 907.169 234.833 907.829 235.5 908.499C236.333 906.499 237.167 904.499 238 902.499C239.011 901.659 240.178 901.329 241.5 901.499C241.336 898.809 241.503 896.149 242 893.499C243 892.169 244 892.169 245 893.499C245.494 891.869 245.66 890.199 245.5 888.499C246.5 888.499 247.5 888.499 248.5 888.499C249.167 885.829 249.833 883.169 250.5 880.499C251.5 880.499 252.5 880.499 253.5 880.499C253.34 878.799 253.506 877.129 254 875.499C256.326 874.189 257.659 872.189 258 869.499C259.011 868.659 260.178 868.329 261.5 868.499C261.248 865.679 261.748 863.009 263 860.499C263.333 860.829 263.667 861.169 264 861.499C263.815 857.489 265.648 855.489 269.5 855.499C269.5 853.169 269.5 850.829 269.5 848.499C270.822 848.669 271.989 848.339 273 847.499C273.236 845.239 273.736 843.069 274.5 840.999C275.793 840.509 277.127 840.339 278.5 840.499C278.714 838.859 278.38 837.359 277.5 835.999C279.044 835.709 280.377 835.039 281.5 833.999C281.167 833.669 280.833 833.329 280.5 832.999C282.614 831.499 283.114 829.669 282 827.499C283.011 828.339 284.178 828.669 285.5 828.499C285.248 825.679 285.748 823.009 287 820.499C288.011 819.659 289.178 819.329 290.5 819.499C292.833 814.829 295.167 810.169 297.5 805.499C298.046 803.869 298.38 802.199 298.5 800.499C299.5 800.499 300.5 800.499 301.5 800.499C300.944 797.099 302.277 794.939 305.5 793.999C305.167 793.669 304.833 793.329 304.5 792.999C306.192 791.599 306.859 789.769 306.5 787.499C307.5 787.499 308.5 787.499 309.5 787.499C309.06 783.229 310.726 780.399 314.5 778.999C313.483 777.949 313.316 776.779 314 775.499C315 775.169 316 774.829 317 774.499C317.973 772.609 318.64 770.609 319 768.499C320 767.829 321 767.169 322 766.499C322.186 764.099 322.686 761.769 323.5 759.499C324.086 759.709 324.586 760.039 325 760.499C324.937 756.559 326.603 753.559 330 751.499C330.49 750.209 330.657 748.869 330.5 747.499C331.833 747.499 333.167 747.499 334.5 747.499C334.337 745.139 334.503 742.809 335 740.499C337.892 739.159 339.225 736.819 339 733.499C339.667 732.169 340.667 731.169 342 730.499C342.333 728.499 342.667 726.499 343 724.499C343.308 725.309 343.808 725.969 344.5 726.499C345.868 724.359 346.868 722.029 347.5 719.499C349.881 717.899 351.048 715.569 351 712.499C351.317 710.699 351.984 710.369 353 711.499C353.458 707.919 354.958 704.919 357.5 702.499C358.314 700.229 358.814 697.899 359 695.499C359.667 696.169 360.333 696.829 361 697.499C362.163 695.709 362.83 693.709 363 691.499C364.011 690.659 365.178 690.329 366.5 690.499C368.136 685.669 369.803 680.839 371.5 675.999C372.01 674.169 372.844 674.009 374 675.499C374.333 672.829 374.667 670.169 375 667.499C376 666.169 377 666.169 378 667.499C379.131 663.519 380.965 659.849 383.5 656.499C382.274 652.839 382.274 649.179 383.5 645.499C382.527 642.219 381.027 639.219 379 636.499C378.667 634.169 378.333 631.829 378 629.499C377 630.829 376 630.829 375 629.499C374.502 626.179 374.335 622.849 374.5 619.499C373.167 620.169 371.833 620.829 370.5 621.499C370.5 617.829 370.5 614.169 370.5 610.499C369.5 610.499 368.5 610.499 367.5 610.499C367.452 607.689 366.785 605.019 365.5 602.499C364.675 601.609 363.675 601.279 362.5 601.499C362.5 599.169 362.5 596.829 362.5 594.499C361.178 594.669 360.011 594.339 359 593.499C358.667 591.169 358.333 588.829 358 586.499C357 585.169 356 585.169 355 586.499C353.687 580.929 352.02 575.599 350 570.499C348.989 569.659 347.822 569.329 346.5 569.499C346.784 567.589 346.451 565.919 345.5 564.499C344.791 565.399 343.791 565.739 342.5 565.499C342.588 561.689 341.921 558.029 340.5 554.499C339.5 557.169 338.5 557.169 337.5 554.499C338.309 552.929 338.643 551.259 338.5 549.499C337.167 549.499 335.833 549.499 334.5 549.499C334.5 546.829 334.5 544.169 334.5 541.499C333.167 541.499 331.833 541.499 330.5 541.499C330.5 538.829 330.5 536.169 330.5 533.499C329.178 533.669 328.011 533.339 327 532.499C325.908 529.959 325.241 527.289 325 524.499C324.586 524.959 324.086 525.289 323.5 525.499C322.702 523.919 322.202 522.259 322 520.499C321.107 521.709 320.274 521.709 319.5 520.499C322.131 518.999 321.797 518.329 318.5 518.499C318.5 516.499 318.5 514.499 318.5 512.499C313.986 512.309 312.653 510.139 314.5 505.999C310.722 504.969 309.389 502.629 310.5 498.999C309.692 497.289 308.359 496.459 306.5 496.499C306.795 494.259 306.461 492.259 305.5 490.499C302.39 489.869 300.89 487.869 301 484.499C297.651 483.259 296.818 481.089 298.5 477.999C297.448 476.879 296.281 476.379 295 476.499C294.178 473.879 293.678 471.219 293.5 468.499C292.5 468.499 291.5 468.499 290.5 468.499C290.824 464.369 289.324 462.029 286 461.499C285.506 459.869 285.34 458.199 285.5 456.499C284.5 456.499 283.5 456.499 282.5 456.499C281.908 453.869 281.575 451.209 281.5 448.499C280.5 448.499 279.5 448.499 278.5 448.499C278.121 444.949 276.621 441.949 274 439.499C273.667 438.169 273.333 436.829 273 435.499C271.844 436.989 271.01 436.829 270.5 434.999C269.713 432.899 269.38 430.729 269.5 428.499C268.5 428.499 267.5 428.499 266.5 428.499C265.08 425.739 264.413 422.739 264.5 419.499C263.5 419.499 262.5 419.499 261.5 419.499C261.657 418.129 261.49 416.789 261 415.499C259.442 416.349 258.442 415.679 258 413.499C257.505 411.529 257.338 409.529 257.5 407.499C256.178 407.669 255.011 407.339 254 406.499C253.505 404.529 253.338 402.529 253.5 400.499C252.448 400.649 251.448 400.479 250.5 399.999C250.335 398.879 250.002 397.719 249.5 396.499C248.311 395.569 246.978 395.239 245.5 395.499C245.5 393.169 245.5 390.829 245.5 388.499C244.178 388.669 243.011 388.339 242 387.499C241.667 385.499 241.333 383.499 241 381.499C239.77 379.979 238.603 379.149 237.5 378.999C237.645 378.229 237.978 377.559 238.5 376.999C234.123 375.349 232.456 372.179 233.5 367.499C232.167 367.499 230.833 367.499 229.5 367.499C230.311 363.449 228.811 360.779 225 359.499C224.51 358.209 224.343 356.869 224.5 355.499C223.5 355.499 222.5 355.499 221.5 355.499C221.345 352.389 220.678 349.389 219.5 346.499C218.549 347.329 217.549 347.489 216.5 346.999C217.554 345.609 217.72 344.109 217 342.499C215.817 343.729 214.651 343.729 213.5 342.499C213.587 340.299 213.587 338.129 213.5 335.999C210.216 334.579 208.216 332.079 207.5 328.499C206.137 329.879 205.137 329.709 204.5 327.999C205.148 326.559 205.481 325.059 205.5 323.499C204.178 323.669 203.011 323.339 202 322.499C202.291 318.259 200.624 315.259 197 313.499C196.667 312.169 196.333 310.829 196 309.499C194.16 310.829 193.66 310.669 194.5 308.999C192.771 307.209 192.104 305.039 192.5 302.499C191.5 302.499 190.5 302.499 189.5 302.499C189.617 300.519 188.95 298.849 187.5 297.499C188.491 295.879 187.824 294.879 185.5 294.499C184.571 293.309 184.238 291.979 184.5 290.499C183.178 290.669 182.011 290.339 181 289.499C181.075 285.849 179.575 283.179 176.5 281.499C176.709 280.909 177.043 280.409 177.5 279.999C174.629 276.969 172.462 273.469 171 269.499C170.586 269.959 170.086 270.289 169.5 270.499C168.52 267.909 168.187 265.249 168.5 262.499C167.448 262.649 166.448 262.479 165.5 261.999C165.335 260.879 165.002 259.719 164.5 258.499C163.311 257.569 161.978 257.239 160.5 257.499C159.667 255.249 159.667 253.079 160.5 250.999C159.234 250.689 158.067 250.189 157 249.499C155.199 245.479 153.532 241.479 152 237.499C150.989 238.339 149.822 238.669 148.5 238.499C148.345 235.389 147.678 232.389 146.5 229.499C145.549 230.329 144.549 230.489 143.5 229.999C144.136 227.609 144.136 225.109 143.5 222.499C142.5 222.499 141.5 222.499 140.5 222.499C140.5 220.829 140.5 219.169 140.5 217.499C136.482 216.959 135.149 214.789 136.5 210.999C135.437 209.809 134.103 209.309 132.5 209.499C130.794 206.569 129.294 202.899 128 198.499C126.989 197.659 125.822 197.329 124.5 197.499C124.477 195.069 123.977 192.739 123 190.499C122 190.169 121 189.829 120 189.499C119.51 188.209 119.343 186.869 119.5 185.499C118.178 185.669 117.011 185.339 116 184.499C115.503 182.189 115.337 179.859 115.5 177.499C114.5 177.499 113.5 177.499 112.5 177.499C112.517 174.009 111.017 171.339 108 169.499C107.667 167.829 107.333 166.169 107 164.499C105.853 165.459 104.853 165.119 104 163.499C103.505 161.529 103.338 159.529 103.5 157.499C102.5 157.499 101.5 157.499 100.5 157.499C99.7224 153.719 98.0564 150.389 95.5004 147.499C95.7094 146.909 96.0434 146.409 96.5004 145.999C95.1284 145.599 93.7954 145.099 92.5004 144.499C91.6864 142.229 91.1864 139.899 91.0004 137.499C90.0004 136.169 89.0004 136.169 88.0004 137.499C87.4744 134.729 86.6414 132.059 85.5004 129.499C84.9144 129.709 84.4144 130.039 84.0004 130.499C83.2804 128.889 83.4464 127.389 84.5004 125.999C83.1094 124.979 81.6094 124.149 80.0004 123.499C80.0484 120.429 78.8814 118.099 76.5004 116.499C75.6504 114.099 74.6504 111.759 73.5004 109.499C72.5754 110.639 71.7414 110.639 71.0004 109.499C70.4934 107.999 70.9934 106.839 72.5004 105.999C68.5464 104.599 66.7124 101.769 67.0004 97.4995C65.9894 96.6595 64.8224 96.3295 63.5004 96.4995C64.5464 92.2195 63.0464 89.5495 59.0004 88.4995C58.3164 87.2195 58.4834 86.0495 59.5004 84.9995C55.5314 84.0595 54.1984 81.7195 55.5004 77.9995C54.6924 76.2895 53.3594 75.4595 51.5004 75.4995C51.7624 74.0195 51.4294 72.6895 50.5004 71.4995C49.3914 72.5895 48.3914 72.5895 47.5004 71.4995C48.0254 70.8095 48.6924 70.3095 49.5004 69.9995C47.7504 68.2495 47.0834 66.0795 47.5004 63.4995C45.6104 63.6995 44.1104 63.0395 43.0004 61.4995C42.6674 59.4995 42.3334 57.4995 42.0004 55.4995C41.3334 56.8295 40.6674 56.8295 40.0004 55.4995C39.1784 52.8795 38.6784 50.2195 38.5004 47.4995C37.5004 47.4995 36.5004 47.4995 35.5004 47.4995C35.5004 46.1695 35.5004 44.8295 35.5004 43.4995C34.1674 43.4995 32.8334 43.4995 31.5004 43.4995C30.9084 40.8695 30.5754 38.2095 30.5004 35.4995C29.1784 35.6695 28.0114 35.3395 27.0004 34.4995C26.6674 32.1695 26.3334 29.8295 26.0004 27.4995C25.3334 28.8295 24.6674 28.8295 24.0004 27.4995C23.5764 25.4795 22.7424 23.6495 21.5004 21.9995C21.6454 21.2295 21.9784 20.5595 22.5004 19.9995C21.2344 19.6895 20.0674 19.1895 19.0004 18.4995C18.3334 15.1695 18.3334 11.8295 19.0004 8.49945C19.5004 7.99945 20.0004 7.49945 20.5004 6.99945C37.1774 6.82945 53.8434 6.32945 70.5004 5.49945C71.0004 4.49945 71.5004 3.49945 72.0004 2.49945C191.098 3.82945 310.265 3.82945 429.5 2.49945C429.291 1.90945 428.957 1.40945 428.5 0.999454C1460.83 0.499454 2493.17 0.329454 3525.5 0.499454C3525.67 4.17945 3525.5 7.84945 3525 11.4995C3524.67 11.1695 3524.33 10.8295 3524 10.4995C3523.67 13.1695 3523.33 15.8295 3523 18.4995C3522 19.1695 3521 19.8295 3520 20.4995C3519.5 24.1495 3519.33 27.8195 3519.5 31.4995C3518.5 31.4995 3517.5 31.4995 3516.5 31.4995C3515.98 35.4795 3515.65 39.4795 3515.5 43.4995C3514.17 43.4995 3512.83 43.4995 3511.5 43.4995C3511.5 47.4995 3511.5 51.4995 3511.5 55.4995C3510.18 55.3295 3509.01 55.6595 3508 56.4995C3507.61 60.5295 3507.11 64.5295 3506.5 68.4995C3505.02 68.2395 3503.69 68.5695 3502.5 69.4995C3503.42 72.7595 3503.75 76.0895 3503.5 79.4995C3502.18 79.3295 3501.01 79.6595 3500 80.4995C3499.67 83.4995 3499.33 86.4995 3499 89.4995C3498.39 91.4795 3497.39 91.8095 3496 90.4995C3495.67 93.8295 3495.33 97.1695 3495 100.499C3494.33 101.829 3493.67 101.829 3493 100.499C3490.76 104.129 3489.92 108.129 3490.5 112.499C3489.5 112.499 3488.5 112.499 3487.5 112.499C3486.64 116.789 3486.47 121.129 3487 125.499C3485.99 124.659 3484.82 124.329 3483.5 124.499C3483.67 128.179 3483.5 131.849 3483 135.499C3481.64 136.379 3480.14 136.709 3478.5 136.499C3478.82 140.549 3478.49 144.549 3477.5 148.499C3476.83 148.829 3476.17 149.169 3475.5 149.499C3474.67 153.119 3474.17 156.789 3474 160.499C3473.33 161.829 3472.67 161.829 3472 160.499C3471.67 164.169 3471.33 167.829 3471 171.499C3470.15 173.119 3469.15 173.459 3468 172.499C3467.77 176.579 3467.1 180.579 3466 184.499C3464.99 185.339 3463.82 185.669 3462.5 185.499C3462.66 188.189 3462.5 190.849 3462 193.499C3460.67 194.169 3459.67 195.169 3459 196.499C3458.05 202.949 3456.71 209.279 3455 215.499C3454.01 216.939 3452.68 217.939 3451 218.499C3450.5 222.149 3450.33 225.819 3450.5 229.499C3448.88 229.359 3447.71 230.029 3447 231.499C3446.67 234.499 3446.33 237.499 3446 240.499C3442.98 244.209 3441.81 248.539 3442.5 253.499C3441.18 253.329 3440.01 253.659 3439 254.499C3438.67 257.829 3438.33 261.169 3438 264.499C3437.15 266.119 3436.15 266.459 3435 265.499C3434.5 269.819 3434.33 274.149 3434.5 278.499C3433.18 278.669 3432.01 278.339 3431 277.499C3428.37 284.459 3426.87 291.789 3426.5 299.499C3425.17 299.499 3423.83 299.499 3422.5 299.499C3422.5 303.169 3422.5 306.829 3422.5 310.499C3421.18 310.329 3420.01 310.659 3419 311.499C3418.5 315.149 3418.33 318.819 3418.5 322.499C3417.5 322.499 3416.5 322.499 3415.5 322.499C3415.08 324.749 3414.42 326.909 3413.5 328.999C3414.85 331.829 3414.01 333.999 3411 335.499C3410.83 339.209 3410.33 342.879 3409.5 346.499C3408.57 347.639 3407.74 347.639 3407 346.499C3406.67 350.169 3406.33 353.829 3406 357.499C3404.86 358.359 3403.53 359.359 3402 360.499C3401.67 363.829 3401.33 367.169 3401 370.499C3400 371.169 3399 371.829 3398 372.499C3397.67 375.829 3397.33 379.169 3397 382.499C3396.33 383.829 3395.67 383.829 3395 382.499C3394.5 386.819 3394.33 391.149 3394.5 395.499C3393.17 395.499 3391.83 395.499 3390.5 395.499C3390.5 399.529 3390.16 403.529 3389.5 407.499C3388.17 407.499 3386.83 407.499 3385.5 407.499C3385.5 410.499 3385.5 413.499 3385.5 416.499C3384.5 416.499 3383.5 416.499 3382.5 416.499C3381.76 420.789 3381.59 425.129 3382 429.499C3380.99 428.659 3379.82 428.329 3378.5 428.499C3378.67 432.179 3378.5 435.849 3378 439.499C3376.86 440.359 3375.53 441.359 3374 442.499C3373.67 445.499 3373.33 448.499 3373 451.499C3372 452.169 3371 452.829 3370 453.499C3369.67 456.829 3369.33 460.169 3369 463.499C3368.33 464.829 3367.67 464.829 3367 463.499C3366.67 467.499 3366.33 471.499 3366 475.499C3364.91 476.289 3363.75 476.959 3362.5 477.499C3361.83 481.169 3361.17 484.829 3360.5 488.499C3359.83 488.829 3359.17 489.169 3358.5 489.499C3357.51 493.109 3357.18 496.769 3357.5 500.499C3356.18 500.329 3355.01 500.659 3354 501.499C3353.5 505.149 3353.33 508.819 3353.5 512.499C3352.5 512.499 3351.5 512.499 3350.5 512.499C3350.26 516.839 3349.93 521.179 3349.5 525.499C3348.18 525.669 3347.01 525.339 3346 524.499C3345.67 528.169 3345.33 531.829 3345 535.499C3344.15 537.119 3343.15 537.459 3342 536.499C3341.67 540.169 3341.33 543.829 3341 547.499C3339.69 548.769 3338.19 549.769 3336.5 550.499C3337.43 554.089 3337.76 557.759 3337.5 561.499C3336.17 561.499 3334.83 561.499 3333.5 561.499C3333.5 564.499 3333.5 567.499 3333.5 570.499C3332.17 570.499 3330.83 570.499 3329.5 570.499C3329.67 574.179 3329.5 577.849 3329 581.499C3327.99 582.339 3326.82 582.669 3325.5 582.499C3324.73 586.449 3324.39 590.449 3324.5 594.499C3323.5 594.499 3322.5 594.499 3321.5 594.499C3321.07 598.749 3320.9 603.079 3321 607.499C3319.99 606.659 3318.82 606.329 3317.5 606.499C3317.5 610.169 3317.5 613.829 3317.5 617.499C3316.18 617.329 3315.01 617.659 3314 618.499C3314.32 624.199 3312.66 629.199 3309 633.499C3308.33 638.829 3308.33 644.169 3309 649.499C3310.01 650.339 3311.18 650.669 3312.5 650.499C3313.02 654.479 3313.35 658.479 3313.5 662.499C3314.82 662.329 3315.99 662.659 3317 663.499C3317.5 667.149 3317.67 670.819 3317.5 674.499C3318.82 674.329 3319.99 674.659 3321 675.499C3320.89 679.309 3321.06 682.969 3321.5 686.499C3322.5 686.499 3323.5 686.499 3324.5 686.499C3324.23 690.599 3324.73 694.599 3326 698.499C3326.67 699.829 3327.33 699.829 3328 698.499C3329.35 702.359 3329.85 706.359 3329.5 710.499C3330.83 710.499 3332.17 710.499 3333.5 710.499C3333.33 714.179 3333.5 717.849 3334 721.499C3335 722.829 3336 722.829 3337 721.499C3338.7 724.429 3338.53 727.099 3336.5 729.499C3337.91 730.619 3339.41 731.619 3341 732.499C3341.33 736.499 3341.67 740.499 3342 744.499C3342.89 743.289 3343.73 743.289 3344.5 744.499C3345.1 748.159 3345.77 751.829 3346.5 755.499C3348.29 755.959 3349.29 757.129 3349.5 758.999C3350.59 761.729 3350.59 764.399 3349.5 766.999C3350.5 767.499 3351.5 767.999 3352.5 768.499C3353.49 772.109 3353.82 775.769 3353.5 779.499C3354.82 779.329 3355.99 779.659 3357 780.499C3357.5 784.149 3357.67 787.819 3357.5 791.499C3358.82 791.329 3359.99 791.659 3361 792.499C3361.17 796.209 3361.67 799.879 3362.5 803.499C3363.43 804.639 3364.26 804.639 3365 803.499C3365.33 804.169 3365.67 804.829 3366 805.499C3365.78 808.229 3365.95 810.899 3366.5 813.499C3366.83 814.169 3367.17 814.829 3367.5 815.499C3368.61 814.409 3369.61 814.409 3370.5 815.499C3369.41 818.769 3369.25 822.109 3370 825.499C3370.71 826.969 3371.88 827.639 3373.5 827.499C3373.18 830.899 3373.51 834.229 3374.5 837.499C3375.86 836.119 3376.86 836.289 3377.5 837.999C3378.23 841.789 3378.73 845.629 3379 849.499C3380.15 848.539 3381.15 848.879 3382 850.499C3382.37 853.879 3382.37 857.209 3382 860.499C3383 860.829 3384 861.169 3385 861.499C3385.17 865.209 3385.67 868.879 3386.5 872.499C3388.43 873.149 3389.6 874.479 3390 876.499C3390.5 879.479 3390.66 882.479 3390.5 885.499C3392.12 885.359 3393.29 886.029 3394 887.499C3394.5 890.479 3394.66 893.479 3394.5 896.499C3395.82 896.669 3396.99 896.339 3398 895.499C3397.89 899.159 3397.89 902.819 3398 906.499C3400.83 910.239 3402.16 914.579 3402 919.499C3403.15 920.739 3404.49 921.739 3406 922.499C3406.18 925.879 3406.68 929.219 3407.5 932.499C3408.17 932.169 3408.83 931.829 3409.5 931.499C3410.33 935.799 3410.83 940.129 3411 944.499C3412 945.829 3413 945.829 3414 944.499C3414.56 946.869 3414.4 949.199 3413.5 951.499C3414.86 953.269 3416.36 954.939 3418 956.499C3418.5 959.819 3418.67 963.149 3418.5 966.499C3419.82 966.329 3420.99 966.659 3422 967.499C3422.5 971.149 3422.67 974.819 3422.5 978.499C3423.82 978.329 3424.99 978.659 3426 979.499C3426.5 981.499 3427 983.499 3427.5 985.499C3427.47 987.029 3426.8 988.199 3425.5 988.999C3427.22 989.519 3428.56 990.519 3429.5 991.999C3430.38 995.439 3430.72 998.939 3430.5 1002.5C3431.83 1002.5 3433.17 1002.5 3434.5 1002.5C3434.33 1006.85 3434.5 1011.18 3435 1015.5C3436 1014.17 3437 1014.17 3438 1015.5C3438.33 1019.17 3438.67 1022.83 3439 1026.5C3440.01 1027.34 3441.18 1027.67 3442.5 1027.5C3442.5 1031.53 3442.84 1035.53 3443.5 1039.5C3444.5 1039.5 3445.5 1039.5 3446.5 1039.5C3446.18 1043.23 3446.51 1046.89 3447.5 1050.5C3448.17 1050.83 3448.83 1051.17 3449.5 1051.5C3450.17 1055.17 3450.83 1058.83 3451.5 1062.5C3452.75 1063.04 3453.91 1063.71 3455 1064.5C3455.33 1068.5 3455.67 1072.5 3456 1076.5C3456.67 1075.17 3457.33 1075.17 3458 1076.5C3458.33 1079.83 3458.67 1083.17 3459 1086.5C3460 1087.17 3461 1087.83 3462 1088.5C3462.5 1092.15 3462.67 1095.82 3462.5 1099.5C3464.39 1099.3 3465.89 1099.96 3467 1101.5C3466.72 1106.2 3468.05 1110.2 3471 1113.5C3471.18 1116.88 3471.68 1120.22 3472.5 1123.5C3473.09 1123.71 3473.59 1124.04 3474 1124.5C3474.17 1128.21 3474.67 1131.88 3475.5 1135.5C3476.17 1135.83 3476.83 1136.17 3477.5 1136.5C3478.33 1140.12 3478.83 1143.79 3479 1147.5C3480.57 1146.94 3481.9 1147.61 3483 1149.5C3483.5 1153.15 3483.67 1156.82 3483.5 1160.5C3484.82 1160.33 3485.99 1160.66 3487 1161.5C3487.5 1165.15 3487.67 1168.82 3487.5 1172.5C3488.5 1172.5 3489.5 1172.5 3490.5 1172.5C3490.33 1176.18 3490.5 1179.85 3491 1183.5C3492.68 1184.06 3494.01 1185.06 3495 1186.5C3495.33 1190.17 3495.67 1193.83 3496 1197.5C3497.15 1196.54 3498.15 1196.88 3499 1198.5C3499.5 1202.15 3499.67 1205.82 3499.5 1209.5C3501.12 1209.36 3502.29 1210.03 3503 1211.5C3503.66 1214.05 3503.49 1216.55 3502.5 1219C3503.86 1220.57 3504.52 1222.4 3504.5 1224.5C3505.5 1224.5 3506.5 1224.5 3507.5 1224.5C3507.33 1228.18 3507.5 1231.85 3508 1235.5C3509 1235.83 3510 1236.17 3511 1236.5C3511.5 1240.82 3511.67 1245.15 3511.5 1249.5C3512.82 1249.67 3513.99 1249.34 3515 1248.5C3515.28 1252.04 3515.78 1255.54 3516.5 1259C3515.38 1261.28 3516.21 1262.78 3519 1263.5C3519.78 1266.43 3519.61 1269.26 3518.5 1272C3519.72 1273.65 3520.55 1275.48 3521 1277.5C3521.41 1277.04 3521.91 1276.71 3522.5 1276.5C3523.5 1283.13 3523.83 1289.8 3523.5 1296.5C2662.5 1296.67 1801.5 1296.5 940.5 1296C940.96 1295.59 941.29 1295.09 941.5 1294.5C627.83 1293.5 314.167 1293.17 0.500411 1293.5C0.336411 1290.81 0.503411 1288.15 1.00041 1285.5C1.33341 1285.83 1.66741 1286.17 2.00041 1286.5C2.33341 1285.17 2.66741 1283.83 3.00041 1282.5C4.60941 1281.85 6.10941 1281.02 7.50041 1280C6.66741 1277.92 6.66741 1275.75 7.50041 1273.5C8.97841 1273.76 10.3114 1273.43 11.5004 1272.5C10.0794 1269.57 11.0794 1268.24 14.5004 1268.5C14.3384 1266.47 14.5054 1264.47 15.0004 1262.5C16.0114 1261.66 17.1784 1261.33 18.5004 1261.5C19.2094 1257.76 20.8764 1254.43 23.5004 1251.5C22.6744 1250.55 22.5084 1249.55 23.0004 1248.5C24.0114 1249.34 25.1784 1249.67 26.5004 1249.5C26.0624 1246.11 26.8954 1243.11 29.0004 1240.5C29.3334 1240.83 29.6674 1241.17 30.0004 1241.5C30.3334 1239.83 30.6674 1238.17 31.0004 1236.5C32.0004 1236.17 33.0004 1235.83 34.0004 1235.5C35.2024 1233.32 35.7024 1230.99 35.5004 1228.5C38.8384 1228.89 39.8384 1227.72 38.5004 1225C39.9184 1222.66 41.5854 1220.49 43.5004 1218.5C42.1674 1215.83 42.8334 1215.17 45.5004 1216.5C46.1394 1212.73 47.9724 1209.73 51.0004 1207.5C51.5114 1205.12 52.1784 1202.79 53.0004 1200.5C53.6674 1201.83 54.3334 1201.83 55.0004 1200.5C55.4904 1199.21 55.6574 1197.87 55.5004 1196.5C56.5004 1196.5 57.5004 1196.5 58.5004 1196.5C58.2984 1194.01 58.7984 1191.68 60.0004 1189.5C61.0114 1188.66 62.1784 1188.33 63.5004 1188.5C63.3404 1186.8 63.5064 1185.13 64.0004 1183.5C68.2454 1179.43 70.7454 1174.43 71.5004 1168.5C74.9104 1168.62 76.2444 1166.95 75.5004 1163.5C76.8334 1163.5 78.1674 1163.5 79.5004 1163.5C79.5004 1161.17 79.5004 1158.83 79.5004 1156.5C80.8224 1156.67 81.9894 1156.34 83.0004 1155.5C84.6104 1151.72 86.4434 1148.06 88.5004 1144.5ZM345.5 564.499C343.972 564.479 343.472 563.819 344 562.499C344.717 563.039 345.217 563.709 345.5 564.499Z" fill="#CFD0CF"/>
</svg>
