<?xml version="1.0" standalone="no"?>
<!DOCTYPE svg PUBLIC "-//W3C//DTD SVG 20010904//EN"
 "http://www.w3.org/TR/2001/REC-SVG-20010904/DTD/svg10.dtd">
<svg version="1.0" xmlns="http://www.w3.org/2000/svg"
 width="1024.000000pt" height="1024.000000pt" viewBox="0 0 1024.000000 1024.000000"
 preserveAspectRatio="none">

<g transform="translate(0.000000,1024.000000) scale(0.100000,-0.100000)"
fill="#C9C9C9" stroke="none">
<path d="M0 5120 l0 -5120 5120 0 5120 0 0 5120 0 5120 -5120 0 -5120 0 0
-5120z m5585 2435 c618 -21 1291 -144 1755 -322 374 -144 663 -335 787 -522
91 -136 113 -293 59 -421 -22 -53 -47 -187 -136 -749 l-110 -683 0 -669 0
-669 -3100 0 -3100 0 0 688 0 687 -74 670 -73 670 45 75 c196 327 472 558 902
755 597 273 1396 429 2550 498 58 4 228 1 495 -8z"/>
</g>
</svg>
