<?xml version="1.0" encoding="UTF-8"?>
<!DOCTYPE svg PUBLIC "-//W3C//DTD SVG 1.1//EN" "http://www.w3.org/Graphics/SVG/1.1/DTD/svg11.dtd">
<svg xmlns="http://www.w3.org/2000/svg" version="1.1" width="4267px" height="4267px" style="shape-rendering:geometricPrecision; text-rendering:geometricPrecision; image-rendering:optimizeQuality; fill-rule:evenodd; clip-rule:evenodd" xmlns:xlink="http://www.w3.org/1999/xlink">
<g><path style="opacity:0.999" fill="#e4e5e4" d="M 2116.5,1114.5 C 2230.66,1113.76 2344.66,1117.6 2458.5,1126C 2634.98,1140.47 2807.98,1173.13 2977.5,1224C 3073.87,1253.44 3164.87,1294.44 3250.5,1347C 3288.84,1370.99 3324.01,1399.15 3356,1431.5C 3384.18,1460.5 3404.18,1494.5 3416,1533.5C 3427.24,1575.58 3424.24,1616.58 3407,1656.5C 3400.18,1683.59 3394.51,1710.93 3390,1738.5C 3362.57,1905.1 3335.57,2071.76 3309,2238.5C 3308.5,2425.5 3308.33,2612.5 3308.5,2799.5C 2447.17,2799.5 1585.83,2799.5 724.5,2799.5C 724.667,2607.83 724.5,2416.17 724,2224.5C 703.541,2040.36 683.374,1856.2 663.5,1672C 663.464,1669.37 663.964,1666.87 665,1664.5C 719.075,1567.08 791.575,1485.91 882.5,1421C 945.184,1377.78 1011.85,1341.11 1082.5,1311C 1192.72,1264.37 1306.38,1228.37 1423.5,1203C 1562.23,1172.99 1702.23,1150.99 1843.5,1137C 1934.52,1127.83 2025.52,1120.33 2116.5,1114.5 Z"/></g>
</svg>
