<?xml version="1.0" standalone="no"?>
<!DOCTYPE svg PUBLIC "-//W3C//DTD SVG 20010904//EN"
 "http://www.w3.org/TR/2001/REC-SVG-20010904/DTD/svg10.dtd">
<svg version="1.0" xmlns="http://www.w3.org/2000/svg"
 width="1024.000000pt" height="1024.000000pt" viewBox="0 0 1024.000000 1024.000000"
 preserveAspectRatio="none">

<g transform="translate(0.000000,1024.000000) scale(0.100000,-0.100000)"
fill="#000000" stroke="none">
<path d="M0 5120 l0 -5120 5120 0 5120 0 0 5120 0 5120 -5120 0 -5120 0 0
-5120z m6240 875 c0 -3 -51 -89 -114 -190 l-114 -185 118 -192 119 -193 -1041
-3 c-573 -1 -1043 0 -1045 2 -2 2 26 89 63 195 l66 191 -66 190 -66 190 1040
0 c572 0 1040 -2 1040 -5z"/>
</g>
</svg>
