<?xml version="1.0" standalone="no"?>
<!DOCTYPE svg PUBLIC "-//W3C//DTD SVG 20010904//EN"
 "http://www.w3.org/TR/2001/REC-SVG-20010904/DTD/svg10.dtd">
<svg version="1.0" xmlns="http://www.w3.org/2000/svg"
 width="1024.000000pt" height="1024.000000pt" viewBox="0 0 1024.000000 1024.000000"
 preserveAspectRatio="none">

<g transform="translate(0.000000,1024.000000) scale(0.100000,-0.100000)"
fill="#000000" stroke="none">
<path d="M0 5120 l0 -5120 5120 0 5120 0 0 5120 0 5120 -5120 0 -5120 0 0
-5120z m6183 690 l-65 -190 66 -191 c36 -106 65 -194 63 -196 -2 -1 -473 -2
-1046 -1 l-1041 3 111 180 c62 99 114 188 117 197 2 11 -40 90 -107 197 -61
98 -111 182 -111 185 0 3 468 6 1040 6 l1039 0 -66 -190z"/>
</g>
</svg>
