<?xml version="1.0" encoding="UTF-8"?>
<!DOCTYPE svg PUBLIC "-//W3C//DTD SVG 1.1//EN" "http://www.w3.org/Graphics/SVG/1.1/DTD/svg11.dtd">
<svg xmlns="http://www.w3.org/2000/svg" version="1.1" width="4267px" height="4267px" style="shape-rendering:geometricPrecision; text-rendering:geometricPrecision; image-rendering:optimizeQuality; fill-rule:evenodd; clip-rule:evenodd" xmlns:xlink="http://www.w3.org/1999/xlink">
<g><path style="opacity:0.999" fill="#e2e5e2" d="M 1628.5,86.5 C 1635.2,87.0121 1641.54,88.8454 1647.5,92C 1704.26,127.701 1765.59,152.368 1831.5,166C 1903.1,180.825 1975.43,189.825 2048.5,193C 2166.64,199.085 2284.64,197.085 2402.5,187C 2476.6,180.913 2548.94,166.246 2619.5,143C 2653.62,130.438 2685.96,114.438 2716.5,95C 2722.26,91.7841 2728.26,89.1175 2734.5,87C 2781.99,95.6205 2828.99,106.621 2875.5,120C 3037.37,167.288 3196.04,223.288 3351.5,288C 3501.54,349.353 3648.21,418.02 3791.5,494C 3854.5,527.485 3915.17,564.485 3973.5,605C 3995.12,620.95 4016.45,637.283 4037.5,654C 4046.6,661.097 4055.1,668.931 4063,677.5C 4063.81,682.363 4063.14,687.03 4061,691.5C 4057.61,699.288 4053.94,706.955 4050,714.5C 3971.41,852.332 3899.08,993.665 3833,1138.5C 3785.74,1246.94 3746.41,1358.28 3715,1472.5C 3696,1543.19 3682,1614.86 3673,1687.5C 3667.37,1755.13 3667.04,1822.8 3672,1890.5C 3677.66,1967.48 3696.33,2041.15 3728,2111.5C 3737.3,2131.27 3746.47,2151.11 3755.5,2171C 3732.18,2268.94 3716.68,2368.11 3709,2468.5C 3707.05,2495.97 3705.88,2523.47 3705.5,2551C 3709.75,3060.53 3716.41,3570.03 3725.5,4079.5C 2698.5,4079.5 1671.5,4079.5 644.5,4079.5C 652.857,3634.53 659.024,3189.53 663,2744.5C 675.061,2551.46 659.228,2360.79 615.5,2172.5C 626.438,2145.95 637.938,2119.62 650,2093.5C 683.407,2010.8 701.074,1924.8 703,1835.5C 704.865,1737.62 694.865,1640.95 673,1545.5C 650.523,1446.74 621.19,1350.07 585,1255.5C 532.414,1119.99 471.414,988.325 402,860.5C 374.84,810.843 347.173,761.51 319,712.5C 314.176,703.854 310.176,694.854 307,685.5C 306.333,683.167 306.333,680.833 307,678.5C 310.465,674.033 314.298,669.867 318.5,666C 378.151,615.999 441.818,571.665 509.5,533C 651.195,452.82 797.195,381.154 947.5,318C 1112.75,247.059 1281.41,185.059 1453.5,132C 1511.58,115.397 1569.92,100.23 1628.5,86.5 Z"/></g>
</svg>
