<?xml version="1.0" encoding="UTF-8"?>
<!DOCTYPE svg PUBLIC "-//W3C//DTD SVG 1.1//EN" "http://www.w3.org/Graphics/SVG/1.1/DTD/svg11.dtd">
<svg xmlns="http://www.w3.org/2000/svg" version="1.1" width="4267px" height="4267px" style="shape-rendering:geometricPrecision; text-rendering:geometricPrecision; image-rendering:optimizeQuality; fill-rule:evenodd; clip-rule:evenodd" xmlns:xlink="http://www.w3.org/1999/xlink">
<g><path style="opacity:0.999" fill="#e3e5e3" d="M 1837.5,1114.5 C 2077.37,1115.81 2315.37,1137.64 2551.5,1180C 2686.04,1204.07 2817.37,1239.74 2945.5,1287C 3046.66,1324.9 3140.66,1375.23 3227.5,1438C 3273.68,1472.19 3314.85,1511.69 3351,1556.5C 3377.87,1592.39 3402.37,1629.89 3424.5,1669C 3403.77,1854.8 3383.27,2040.63 3363,2226.5C 3362.5,2417.5 3362.33,2608.5 3362.5,2799.5C 2501.17,2799.5 1639.83,2799.5 778.5,2799.5C 778.667,2611.83 778.5,2424.17 778,2236.5C 751.983,2071.06 725.316,1905.73 698,1740.5C 692.45,1702.3 683.45,1664.97 671,1628.5C 658.511,1574.27 667.177,1523.61 697,1476.5C 724.71,1436.46 758.21,1401.96 797.5,1373C 849.713,1335.23 905.713,1303.56 965.5,1278C 1061.21,1237.32 1159.88,1205.65 1261.5,1183C 1416.67,1148.31 1573.67,1126.98 1732.5,1119C 1767.65,1117.31 1802.65,1115.81 1837.5,1114.5 Z"/></g>
</svg>
