<svg width="2305" height="2305" viewBox="0 0 2305 2305" fill="none" xmlns="http://www.w3.org/2000/svg">
<path opacity="0.995" fill-rule="evenodd" clip-rule="evenodd" d="M2064.17 1402.91C2063.74 1403.7 2063.47 1404.6 2063.36 1405.61C2062.81 1406.07 2062.18 1406.24 2061.47 1406.15C2061.55 1407.25 2061.47 1408.33 2061.2 1409.39C2060.81 1410.19 2060.18 1410.55 2059.31 1410.47C2059.39 1411.21 2059.3 1411.94 2059.04 1412.64C2058.17 1412.99 2057.36 1413.43 2056.61 1413.99C2056.78 1414.16 2056.97 1414.35 2057.15 1414.53C2056.75 1415.28 2056.48 1416.09 2056.34 1416.96C2055.79 1417.41 2055.16 1417.59 2054.44 1417.5C2054.9 1419.7 2054.18 1421.32 2052.28 1422.36C2051.88 1423.03 2051.7 1423.75 2051.74 1424.52C2051.2 1424.52 2050.66 1424.52 2050.12 1424.52C2050.01 1426.15 2049.83 1427.77 2049.58 1429.38C2047.16 1429.09 2046.44 1429.99 2047.42 1432.08C2046.7 1432.08 2045.98 1432.08 2045.26 1432.08C2045.08 1433.52 2044.9 1434.96 2044.72 1436.4C2044 1436.4 2043.28 1436.4 2042.56 1436.4C2042.65 1437.68 2042.56 1438.94 2042.29 1440.19C2041.69 1441.02 2040.88 1441.37 2039.86 1441.27C2039.82 1442.04 2039.99 1442.76 2040.4 1443.43C2039.76 1443.45 2039.04 1443.64 2038.24 1443.97C2037.77 1445.18 2037.58 1446.44 2037.7 1447.75C2036.98 1447.75 2036.26 1447.75 2035.54 1447.75C2035.81 1449.76 2035.35 1451.56 2034.19 1453.15C2034.01 1452.97 2033.83 1452.79 2033.65 1452.61C2033.39 1453.55 2033.03 1454.45 2032.57 1455.31C2031.95 1454.79 2031.41 1454.98 2030.95 1455.85C2031.07 1457.03 2030.89 1458.29 2030.41 1459.63C2029.87 1460.35 2029.33 1460.35 2028.79 1459.63C2028.52 1460.7 2028.43 1461.78 2028.52 1462.87C2027.8 1462.78 2027.17 1462.96 2026.62 1463.41C2025.06 1465.86 2024.06 1468.56 2023.65 1471.52C2022.77 1471.4 2021.96 1471.58 2021.22 1472.06C2021.33 1472.94 2021.33 1473.83 2021.22 1474.76C2020.83 1474.24 2020.39 1474.15 2019.87 1474.49C2019.32 1475.61 2018.87 1476.78 2018.52 1478C2016.91 1478.42 2016.46 1479.32 2017.17 1480.7C2015.83 1481.2 2015.47 1482.01 2016.09 1483.13C2014.39 1483.19 2013.85 1483.91 2014.47 1485.29C2014.2 1485.56 2013.93 1485.83 2013.66 1486.1C2013.26 1485.49 2012.81 1485.49 2012.31 1486.1C2011.87 1487.33 2011.6 1488.59 2011.5 1489.88C2010.96 1490.6 2010.42 1490.6 2009.88 1489.88C2009.61 1490.95 2009.52 1492.03 2009.61 1493.12C2008.9 1493.03 2008.26 1493.21 2007.72 1493.66C2007.59 1494.89 2007.32 1496.06 2006.91 1497.18C2006.19 1497.35 2005.47 1497.54 2004.75 1497.72C2004.9 1499.9 2004.9 1502.15 2004.75 1504.47C2005.63 1504.35 2006.44 1504.53 2007.18 1505.01C2007.45 1506.26 2007.53 1507.51 2007.45 1508.79C2008.16 1508.7 2008.79 1508.88 2009.34 1509.33C2010.08 1511.57 2010.89 1513.73 2011.77 1515.81C2012.49 1515.81 2013.21 1515.81 2013.93 1515.81C2014.03 1517.28 2014.3 1518.72 2014.74 1520.13C2015.29 1520.59 2015.92 1520.77 2016.63 1520.67C2016.54 1521.41 2016.64 1522.14 2016.9 1522.83C2017.26 1523.55 2017.62 1523.55 2017.98 1522.83C2018.14 1523.88 2018.6 1524.78 2019.33 1525.54C2018.69 1527.31 2019.41 1528.12 2021.49 1527.97C2021.49 1529.23 2021.49 1530.49 2021.49 1531.75C2022.37 1532.46 2023.28 1532.73 2024.19 1532.56C2023.79 1533.23 2023.61 1533.95 2023.65 1534.72C2024.37 1534.63 2025 1534.81 2025.54 1535.26C2026.22 1536.61 2026.49 1538.06 2026.35 1539.58C2026.92 1539.5 2027.46 1539.59 2027.97 1539.85C2028.38 1541.02 2028.83 1542.2 2029.33 1543.36C2029.69 1544.08 2030.04 1544.08 2030.41 1543.36C2030.68 1544.43 2030.76 1545.51 2030.68 1546.6C2031.48 1546.46 2032.19 1546.64 2032.84 1547.14C2033.31 1548.36 2033.49 1549.62 2033.38 1550.92C2034.09 1550.83 2034.72 1551.01 2035.27 1551.46C2035.45 1552.37 2035.63 1553.26 2035.81 1554.17C2036.43 1553.36 2036.88 1553.45 2037.16 1554.44C2037.5 1555.59 2037.77 1556.76 2037.97 1557.95C2038.51 1558.4 2039.15 1558.58 2039.86 1558.49C2039.87 1559.8 2040.14 1561.06 2040.67 1562.27C2041.58 1562.37 2042.39 1562.64 2043.1 1563.08C2042.62 1563.81 2042.45 1564.62 2042.56 1565.51C2043.28 1565.51 2044 1565.51 2044.72 1565.51C2044.72 1566.95 2044.72 1568.39 2044.72 1569.83C2045.44 1569.83 2046.16 1569.83 2046.88 1569.83C2046.89 1571.46 2047.43 1572.91 2048.5 1574.15C2049.38 1573.62 2049.92 1573.98 2050.12 1575.23C2049.94 1575.6 2049.76 1575.95 2049.58 1576.31C2051.51 1577.28 2052.5 1578.9 2052.55 1581.18C2053.1 1581.63 2053.73 1581.81 2054.44 1581.72C2054.27 1583.4 2054.9 1584.65 2056.34 1585.5C2056.29 1587.47 2057.1 1588.91 2058.77 1589.82C2059.14 1590.87 2059.41 1591.95 2059.58 1593.06C2059.98 1593.68 2060.42 1593.68 2060.93 1593.06C2061.44 1593.9 2061.62 1594.79 2061.47 1595.76C2062.18 1595.67 2062.81 1595.85 2063.36 1596.3C2063.63 1597.73 2063.71 1599.17 2063.63 1600.62C2064.35 1600.62 2065.07 1600.62 2065.79 1600.62C2066.44 1603.11 2067.34 1605.45 2068.49 1607.64C2069.2 1607.55 2069.83 1607.73 2070.38 1608.18C2071.13 1609.42 2071.4 1610.68 2071.19 1611.97C2071.81 1612.63 2072.44 1612.63 2073.08 1611.97C2073.08 1612.68 2073.08 1613.41 2073.08 1614.13C2075.23 1615.33 2076.04 1617.04 2075.51 1619.26C2076.21 1619.52 2076.93 1619.62 2077.67 1619.53C2077.99 1620.95 2078.17 1622.39 2078.21 1623.85C2079.01 1623.71 2079.73 1623.89 2080.37 1624.39C2079.7 1626.24 2080.42 1626.96 2082.53 1626.55C2082.53 1627.99 2082.53 1629.43 2082.53 1630.87C2083.25 1630.78 2083.88 1630.96 2084.43 1631.41C2084.64 1633.34 2085.54 1634.78 2087.13 1635.73C2087.3 1636.64 2087.49 1637.53 2087.67 1638.44C2088.29 1637.92 2088.83 1638.1 2089.29 1638.98C2089.44 1640.27 2089.71 1641.53 2090.1 1642.76C2090.54 1643.24 2091.08 1643.42 2091.72 1643.3C2091.72 1644.02 2091.72 1644.74 2091.72 1645.46C2093.2 1645.69 2094.1 1646.59 2094.42 1648.16C2094.31 1648.48 2094.13 1648.75 2093.88 1648.97C2094.51 1649.55 2095.23 1650.01 2096.04 1650.32C2096.58 1651.76 2097.12 1653.2 2097.66 1654.64C2098.26 1654.05 2098.8 1654.05 2099.28 1654.64C2098.88 1655.31 2098.7 1656.03 2098.74 1656.8C2099.31 1656.72 2099.85 1656.81 2100.36 1657.07C2101.01 1658.34 2101.47 1659.69 2101.71 1661.12C2102.26 1661.58 2102.89 1661.76 2103.6 1661.66C2103.62 1663.19 2103.99 1664.63 2104.68 1665.99C2105.04 1665.62 2105.4 1665.27 2105.76 1664.91C2106.4 1665.79 2106.4 1666.69 2105.76 1667.61C2106.03 1668.15 2106.3 1668.69 2106.57 1669.23C2106.97 1668.61 2107.42 1668.61 2107.92 1669.23C2108.45 1670.63 2108.63 1672.06 2108.46 1673.55C2109.18 1673.55 2109.91 1673.55 2110.62 1673.55C2110.24 1675.36 2110.96 1676.35 2112.79 1676.52C2112.61 1676.7 2112.42 1676.88 2112.24 1677.06C2113.18 1678.03 2113.54 1679.2 2113.33 1680.57C2114.04 1680.57 2114.77 1680.57 2115.49 1680.57C2115.49 1682.01 2115.49 1683.45 2115.49 1684.89C2116.2 1684.89 2116.93 1684.89 2117.65 1684.89C2117.65 1685.79 2117.65 1686.69 2117.65 1687.59C2118.37 1687.59 2119.09 1687.59 2119.81 1687.59C2119.72 1689.05 2119.81 1690.48 2120.08 1691.91C2120.8 1692.28 2121.52 1692.63 2122.24 1693C2122.43 1693.92 2122.7 1694.82 2123.05 1695.7C2123.85 1696.03 2124.57 1696.21 2125.21 1696.24C2124.75 1697.27 2124.57 1698.35 2124.67 1699.48C2125.39 1699.48 2126.11 1699.48 2126.83 1699.48C2126.88 1700.66 2127.24 1701.74 2127.91 1702.72C2127.8 1703.04 2127.62 1703.31 2127.37 1703.53C2128.09 1703.89 2128.81 1704.25 2129.53 1704.61C2129.02 1705 2128.93 1705.45 2129.26 1705.96C2131.66 1706.93 2132.74 1708.73 2132.5 1711.36C2132.68 1711.18 2132.86 1711 2133.04 1710.82C2134.07 1712.26 2134.52 1713.88 2134.39 1715.68C2135.11 1715.68 2135.84 1715.68 2136.55 1715.68C2136.47 1716.42 2136.56 1717.15 2136.82 1717.84C2137.36 1718.56 2137.9 1718.56 2138.44 1717.84C2139.01 1719.6 2139.36 1721.4 2139.52 1723.25C2140.15 1722.73 2140.69 1722.91 2141.15 1723.79C2141.28 1724.83 2141.55 1725.82 2141.96 1726.76C2142.47 1727.02 2143.01 1727.11 2143.58 1727.03C2143.58 1727.93 2143.58 1728.83 2143.58 1729.73C2144.29 1729.64 2144.92 1729.81 2145.47 1730.27C2145.21 1732.61 2146.11 1734.23 2148.17 1735.13C2148.35 1735.85 2148.53 1736.57 2148.71 1737.29C2149.07 1736.57 2149.43 1736.57 2149.79 1737.29C2150.37 1738.67 2150.64 1740.12 2150.6 1741.61C2151.31 1741.52 2151.94 1741.7 2152.49 1742.15C2153.02 1743.36 2153.29 1744.62 2153.3 1745.93C2154.1 1745.79 2154.82 1745.97 2155.46 1746.47C2155.01 1746.99 2154.93 1747.53 2155.19 1748.09C2155.78 1749.12 2156.5 1749.48 2157.35 1749.18C2158.06 1750.36 2158.15 1751.53 2157.62 1752.69C2158.19 1753.33 2158.92 1753.6 2159.78 1753.5C2160.05 1754.74 2160.23 1756 2160.32 1757.28C2161.04 1757.28 2161.76 1757.28 2162.48 1757.28C2162.6 1758.16 2162.42 1758.97 2161.94 1759.71C2164.67 1760.36 2165.75 1762.07 2165.18 1764.84C2165.75 1764.76 2166.29 1764.85 2166.8 1765.11C2167.21 1766.05 2167.48 1767.04 2167.61 1768.08C2168.24 1767.28 2168.69 1767.36 2168.97 1768.35C2169.39 1769.49 2169.57 1770.66 2169.51 1771.86C2170.22 1771.77 2170.85 1771.95 2171.4 1772.4C2171.21 1774.57 2172.02 1776.19 2173.83 1777.27C2174.23 1777.94 2174.41 1778.65 2174.37 1779.43C2175.08 1779.33 2175.71 1779.51 2176.26 1779.97C2176.53 1781.4 2176.61 1782.83 2176.53 1784.29C2177.25 1784.29 2177.97 1784.29 2178.69 1784.29C2178.66 1785.41 2179.02 1786.39 2179.77 1787.26C2180.39 1787.67 2180.93 1788.03 2181.39 1788.34C2181.04 1789.12 2180.86 1789.93 2180.85 1790.77C2181.74 1790.66 2182.55 1790.83 2183.28 1791.31C2183.72 1792.73 2183.99 1794.16 2184.09 1795.63C2184.63 1795.63 2185.17 1795.63 2185.71 1795.63C2185.73 1797.5 2186.54 1798.94 2188.14 1799.95C2188.32 1800.86 2188.5 1801.75 2188.68 1802.65C2189.23 1802.91 2189.86 1803.01 2190.57 1802.92C2190.32 1803.15 2190.15 1803.42 2190.03 1803.73C2190.73 1804.72 2191.28 1805.8 2191.65 1806.98C2192.03 1806.69 2192.3 1806.33 2192.46 1805.9C2193.2 1807.21 2193.47 1808.65 2193.27 1810.22C2193.91 1810.1 2194.45 1810.28 2194.89 1810.76C2195.36 1811.97 2195.55 1813.23 2195.43 1814.54C2196.15 1814.54 2196.88 1814.54 2197.6 1814.54C2197.48 1816.9 2198.38 1818.7 2200.3 1819.94C2200.18 1820.26 2200 1820.53 2199.76 1820.75C2202.04 1821.65 2203.03 1823.37 2202.73 1825.88C2203.27 1826.06 2203.81 1826.24 2204.35 1826.42C2204.53 1827.32 2204.71 1828.22 2204.89 1829.12C2205.43 1828.41 2205.97 1828.41 2206.51 1829.12C2207.25 1830.38 2207.43 1831.64 2207.05 1832.9C2207.59 1833.36 2208.23 1833.54 2208.94 1833.45C2209.03 1834.89 2209.57 1836.15 2210.56 1837.23C2211.27 1835.94 2211.81 1835.94 2212.18 1837.23C2211.82 1838.28 2211.65 1839.36 2211.64 1840.47C2212.36 1840.47 2213.08 1840.47 2213.8 1840.47C2214.12 1841.89 2214.3 1843.33 2214.34 1844.79C2215.98 1844.74 2216.89 1845.55 2217.04 1847.22C2217.56 1847.48 2218.1 1847.57 2218.66 1847.49C2218.93 1849.11 2219.2 1850.73 2219.47 1852.35C2219.84 1851.63 2220.19 1851.63 2220.55 1852.35C2221.14 1853.73 2221.41 1855.18 2221.36 1856.67C2222.08 1856.67 2222.81 1856.67 2223.52 1856.67C2223.44 1857.59 2223.53 1858.49 2223.79 1859.37C2224.87 1858.89 2225.5 1859.34 2225.69 1860.72C2226.01 1861.56 2226.01 1862.28 2225.69 1862.89C2226.29 1863.91 2227.19 1864.36 2228.39 1864.24C2228.3 1865.33 2228.39 1866.41 2228.66 1867.48C2229.2 1867.93 2229.83 1868.11 2230.55 1868.02C2230.55 1868.92 2230.55 1869.82 2230.55 1870.72C2232.24 1870.75 2233.14 1871.64 2233.25 1873.42C2233.78 1875.92 2233.97 1878.44 2233.79 1880.98C2052.11 1880.89 1870.42 1880.98 1688.73 1881.25C1689.1 1881.43 1689.45 1881.61 1689.81 1881.79C1194.64 1882.15 699.464 1882.15 204.286 1881.79C204.646 1881.61 205.006 1881.43 205.367 1881.25C200.325 1881.07 195.283 1880.89 190.241 1880.71C187.026 1879.92 186.756 1878.21 189.431 1875.58C189.611 1875.76 189.791 1875.94 189.971 1876.12C190.241 1873.42 190.331 1870.72 190.241 1868.02C190.955 1868.11 191.586 1867.93 192.132 1867.48C192.312 1864.95 192.492 1862.44 192.672 1859.91C193.541 1859.56 194.351 1859.12 195.103 1858.56C194.388 1856.45 194.568 1854.38 195.643 1852.35C196.003 1852.17 196.363 1851.99 196.723 1851.81C197.259 1849.5 197.44 1847.16 197.264 1844.79C197.978 1844.88 198.608 1844.7 199.154 1844.25C199.424 1841.55 199.514 1838.85 199.424 1836.15C200.144 1836.15 200.865 1836.15 201.585 1836.15C201.496 1833.8 201.586 1831.46 201.855 1829.12C202.395 1828.41 202.936 1828.41 203.476 1829.12C203.64 1826.75 204 1824.41 204.556 1822.1C205.102 1821.65 205.733 1821.47 206.447 1821.56C206.357 1819.39 206.447 1817.23 206.717 1815.08C207.263 1814.62 207.894 1814.45 208.608 1814.54C208.608 1812.2 208.608 1809.85 208.608 1807.52C209.328 1807.52 210.048 1807.52 210.768 1807.52C211.315 1805.52 211.315 1803.53 210.768 1801.57C211.195 1800.5 211.825 1800.32 212.659 1801.03C212.862 1799.68 213.312 1798.42 214.01 1797.25C213.341 1795.81 213.341 1794.37 214.01 1792.93C214.904 1793.75 215.535 1793.57 215.9 1792.39C216.08 1790.59 216.261 1788.79 216.44 1786.99C216.981 1786.63 217.521 1786.27 218.061 1785.91C218.241 1783.93 218.421 1781.95 218.601 1779.97C219.141 1779.6 219.682 1779.25 220.222 1778.89C220.402 1777.09 220.582 1775.28 220.762 1773.48C221.14 1772.66 221.77 1772.12 222.653 1771.86C223.013 1769.7 223.373 1767.54 223.733 1765.38C224.093 1765.2 224.453 1765.02 224.813 1764.84C225.349 1762.71 225.529 1760.55 225.354 1758.36C226.074 1758.36 226.794 1758.36 227.514 1758.36C227.425 1756.19 227.515 1754.03 227.785 1751.88C228.331 1751.42 228.961 1751.24 229.675 1751.34C229.586 1749.35 229.676 1747.37 229.945 1745.39C230.22 1744.1 230.85 1743.74 231.836 1744.31C232.283 1742.17 232.553 1740.01 232.646 1737.83C233.107 1736.96 233.647 1736.77 234.267 1737.29C234.536 1734.96 234.627 1732.62 234.537 1730.27C235.257 1730.27 235.978 1730.27 236.698 1730.27C237.177 1728.26 237.267 1726.29 236.968 1724.33C237.462 1723.88 237.822 1723.34 238.048 1722.71C238.785 1723.12 239.415 1722.85 239.939 1721.9C239.335 1720.24 239.245 1718.52 239.669 1716.76C240.384 1716.02 241.104 1715.84 241.83 1716.22C242.188 1714.4 242.097 1712.6 241.559 1710.82C242.025 1709.6 242.926 1709.06 244.26 1709.2C244.171 1707.57 244.261 1705.95 244.53 1704.34C245.071 1703.98 245.611 1703.62 246.151 1703.26C246.331 1701.46 246.511 1699.66 246.691 1697.86C247.546 1697.07 248.266 1696.17 248.852 1695.16C249.032 1693.54 249.212 1691.91 249.392 1690.29C249.938 1689.84 250.569 1689.66 251.283 1689.75C251.193 1687.59 251.283 1685.43 251.553 1683.27C252.099 1682.82 252.73 1682.64 253.444 1682.73C253.269 1680.54 253.449 1678.38 253.984 1676.25C254.344 1676.07 254.704 1675.89 255.064 1675.71C255.509 1673.94 255.779 1672.13 255.875 1670.31C256.149 1669.01 256.779 1668.65 257.765 1669.23C258.302 1666.73 258.482 1664.21 258.305 1661.66C259.02 1661.57 259.65 1661.75 260.196 1662.2C260.376 1660.04 260.556 1657.88 260.736 1655.72C261.197 1654.85 261.737 1654.66 262.357 1655.18C262.827 1654.85 263.097 1654.4 263.167 1653.83C262.373 1651.84 262.553 1649.95 263.707 1648.16C264.081 1648.45 264.351 1648.8 264.518 1649.24C264.72 1646.91 265.079 1644.56 265.598 1642.22C266.178 1642.64 266.808 1642.55 267.489 1641.95C267.309 1641.77 267.128 1641.59 266.948 1641.41C267.701 1640.89 268.062 1640.17 268.029 1639.25C267.433 1637.52 267.433 1635.81 268.029 1634.11C268.777 1636.21 269.407 1636.21 269.92 1634.11C270.326 1632.28 270.236 1630.48 269.649 1628.71C270.388 1628.12 271.019 1628.3 271.54 1629.25C272.183 1627.16 272.543 1625 272.62 1622.77C273.004 1621.98 273.634 1621.61 274.511 1621.69C275.577 1617.19 276.657 1612.69 277.752 1608.18C278.252 1607.57 278.702 1607.57 279.103 1608.18C279.283 1605.85 279.463 1603.5 279.643 1601.16C280.183 1600.44 280.723 1600.44 281.264 1601.16C281.443 1599 281.624 1596.84 281.804 1594.68C282.37 1593.81 283.181 1593.45 284.235 1593.6C284.06 1591.41 284.239 1589.25 284.775 1587.12C285.135 1586.94 285.495 1586.76 285.855 1586.58C286.388 1584.81 286.568 1583.01 286.395 1581.18C287.115 1581.18 287.836 1581.18 288.556 1581.18C288.38 1578.81 288.56 1576.46 289.096 1574.15C290.085 1574.98 290.625 1574.71 290.717 1573.34C291.094 1571.84 291.184 1570.31 290.987 1568.75C291.58 1567.96 292.39 1567.51 293.418 1567.4C293.263 1565.22 293.263 1562.97 293.418 1560.65C294.138 1560.65 294.859 1560.65 295.579 1560.65C296.205 1558.37 296.205 1556.12 295.579 1553.9C296.272 1553.53 296.903 1553.61 297.469 1554.17C298.078 1551.87 298.437 1549.53 298.55 1547.14C299.579 1546.79 300.389 1546.16 300.981 1545.25C300.895 1543.48 300.895 1541.58 300.981 1539.58C301.701 1539.58 302.421 1539.58 303.141 1539.58C303.052 1537.41 303.142 1535.25 303.411 1533.1C303.958 1532.64 304.588 1532.47 305.302 1532.56C305.212 1530.39 305.303 1528.23 305.572 1526.08C306.279 1524.78 306.819 1524.78 307.193 1526.08C307.373 1524.28 307.553 1522.47 307.733 1520.67C308.273 1520.5 308.813 1520.31 309.354 1520.13C309.466 1517.75 309.826 1515.41 310.434 1513.11C311.187 1513.82 311.728 1513.64 312.054 1512.57C312.324 1510.42 312.414 1508.25 312.325 1506.09C313.045 1506.09 313.765 1506.09 314.485 1506.09C314.663 1503.19 314.483 1500.3 313.945 1497.45C313.417 1497.19 312.967 1496.83 312.595 1496.37C312.5 1494.36 312.23 1492.38 311.784 1490.42C311.285 1489.81 310.834 1489.81 310.434 1490.42C309.986 1487.92 309.625 1485.39 309.354 1482.86C308.813 1483.58 308.273 1483.58 307.733 1482.86C307.64 1480.68 307.369 1478.52 306.923 1476.38C306.562 1476.2 306.203 1476.02 305.842 1475.84C305.307 1473.7 305.127 1471.54 305.302 1469.36C304.582 1469.36 303.861 1469.36 303.141 1469.36C303.231 1467.19 303.141 1465.03 302.871 1462.87C302.41 1462 301.87 1461.81 301.251 1462.33C301.126 1460.13 300.766 1457.97 300.17 1455.85C299.4 1455.47 298.59 1455.38 297.739 1455.58C298.348 1453.56 298.438 1451.49 298.009 1449.37C297.626 1448.57 296.996 1448.21 296.119 1448.29C296.119 1446.67 296.119 1445.05 296.119 1443.43C295.231 1443.54 294.42 1443.36 293.688 1442.89C293.277 1440.87 293.368 1438.89 293.958 1436.94C293.141 1436.21 292.331 1436.03 291.527 1436.4C291.01 1433.91 290.649 1431.39 290.447 1428.84C289.907 1429.56 289.366 1429.56 288.826 1428.84C288.557 1426.51 288.466 1424.17 288.556 1421.82C287.836 1421.82 287.115 1421.82 286.395 1421.82C286.395 1419.66 286.395 1417.5 286.395 1415.34C285.681 1415.43 285.051 1415.25 284.505 1414.8C284.321 1412.6 283.961 1410.44 283.424 1408.31C283.064 1407.6 282.704 1407.6 282.344 1408.31C281.701 1406.22 281.341 1404.06 281.264 1401.83C280.903 1401.11 280.543 1401.11 280.183 1401.83C279.533 1399.55 279.173 1397.21 279.103 1394.81C278.557 1394.36 277.926 1394.18 277.212 1394.27C277.212 1392.65 277.212 1391.03 277.212 1389.41C276.498 1389.5 275.868 1389.32 275.321 1388.87C275.142 1386.71 274.961 1384.55 274.781 1382.38C274.051 1382.41 273.421 1382.14 272.891 1381.57C272.496 1379.53 272.226 1377.45 272.08 1375.36C271.534 1374.91 270.904 1374.73 270.19 1374.82C270.279 1372.83 270.189 1370.85 269.92 1368.88C269.536 1368.09 268.906 1367.72 268.029 1367.8C267.802 1365.87 267.712 1363.88 267.759 1361.86C266.785 1361.42 265.974 1360.79 265.328 1359.97C265.243 1357.98 264.972 1355.92 264.518 1353.75C263.977 1354.47 263.437 1354.47 262.897 1353.75C262.627 1351.42 262.537 1349.08 262.627 1346.73C261.913 1346.64 261.282 1346.82 260.736 1347.27C260.556 1345.11 260.376 1342.95 260.196 1340.79C259.65 1340.34 259.02 1340.16 258.305 1340.25C258.395 1338.62 258.304 1337 258.035 1335.39C257.489 1334.93 256.859 1334.76 256.145 1334.85C255.804 1332.52 255.534 1330.18 255.334 1327.83C254.715 1328.34 254.175 1328.16 253.714 1327.29C253.534 1325.12 253.353 1322.96 253.174 1320.8C252.773 1321.42 252.323 1321.42 251.823 1320.8C251.287 1318.49 251.107 1316.15 251.283 1313.78C250.563 1313.78 249.842 1313.78 249.122 1313.78C249.212 1311.61 249.122 1309.45 248.852 1307.3C247.947 1307 247.227 1306.46 246.691 1305.68C246.511 1303.88 246.331 1302.07 246.151 1300.28C245.611 1300.1 245.071 1299.91 244.53 1299.74C244.351 1297.57 244.17 1295.41 243.99 1293.25C243.162 1293.02 242.352 1292.83 241.559 1292.71C242.192 1290.56 242.192 1288.4 241.559 1286.23C240.845 1286.14 240.215 1286.32 239.669 1286.77C239.268 1285.12 239.358 1283.5 239.939 1281.91C239.239 1280.92 238.699 1279.84 238.318 1278.67C237.819 1279.28 237.368 1279.28 236.968 1278.67C236.74 1277.19 236.74 1275.75 236.968 1274.35C236.122 1274.65 235.402 1274.29 234.807 1273.27C234.401 1271.43 234.491 1269.63 235.077 1267.86C234.911 1267.43 234.641 1267.07 234.267 1266.78C233.727 1266.96 233.186 1267.15 232.646 1267.32C232.377 1264.81 232.286 1262.29 232.376 1259.76C231.656 1259.76 230.935 1259.76 230.215 1259.76C229.786 1257.44 229.606 1255.1 229.675 1252.74C228.798 1252.81 228.168 1252.45 227.785 1251.66C227.935 1249.12 227.215 1246.96 225.624 1245.18C225.529 1243.17 225.259 1241.19 224.813 1239.23C224.453 1239.06 224.093 1238.87 223.733 1238.69C223.254 1236.54 222.895 1234.38 222.653 1232.21C221.775 1232.29 221.146 1231.92 220.762 1231.13C220.685 1228.91 220.324 1226.74 219.682 1224.65C219.321 1225.37 218.962 1225.37 218.601 1224.65C218.421 1223.03 218.241 1221.41 218.061 1219.79C217.661 1220.4 217.21 1220.4 216.711 1219.79C216.263 1217.46 215.993 1215.12 215.9 1212.76C215.72 1212.94 215.54 1213.13 215.36 1213.3C213.594 1212.27 213.144 1210.83 214.01 1208.98C213.897 1207.23 213.087 1205.97 211.579 1205.2C211.399 1203.4 211.218 1201.6 211.039 1199.8C210.472 1198.93 209.662 1198.57 208.608 1198.72C209.168 1196.36 209.168 1194.02 208.608 1191.7C207.888 1191.7 207.167 1191.7 206.447 1191.7C206.537 1189.53 206.446 1187.37 206.177 1185.21C205.637 1184.5 205.096 1184.5 204.556 1185.21C203.911 1182.92 203.641 1180.58 203.746 1178.19C203.026 1178.19 202.305 1178.19 201.585 1178.19C201.675 1175.84 201.585 1173.5 201.315 1171.17C200.915 1170.55 200.464 1170.55 199.965 1171.17C199.431 1169.4 199.252 1167.6 199.424 1165.77C198.704 1165.77 197.984 1165.77 197.264 1165.77C197.353 1163.42 197.263 1161.08 196.994 1158.75C196.593 1159.36 196.143 1159.36 195.643 1158.75C194.867 1156.67 194.687 1154.6 195.103 1152.53C194.351 1151.98 193.541 1151.53 192.672 1151.18C192.402 1149.03 192.312 1146.87 192.402 1144.7C191.688 1144.79 191.057 1144.61 190.511 1144.16C190.242 1142 190.151 1139.84 190.241 1137.68C189.521 1137.68 188.8 1137.68 188.08 1137.68C188.011 1134.47 187.65 1131.59 187 1129.03C816.502 1128.94 1446.01 1129.03 2075.51 1129.3C2075.33 1129.48 2075.15 1129.67 2074.97 1129.84C2124.31 1129.88 2173.65 1130.23 2222.98 1130.93C2222.37 1131.32 2222.37 1131.77 2222.98 1132.28C2224.14 1132.59 2225.13 1133.13 2225.96 1133.9C2225.99 1135.87 2225.9 1137.85 2225.69 1139.84C2224.97 1139.84 2224.24 1139.84 2223.52 1139.84C2223.61 1140.93 2223.52 1142.02 2223.25 1143.08C2222.71 1142.36 2222.17 1142.36 2221.63 1143.08C2221.46 1144.34 2221.27 1145.6 2221.09 1146.86C2220.69 1147.48 2220.25 1147.48 2219.74 1146.86C2218.8 1150.39 2217.63 1153.45 2216.23 1156.04C2216.05 1155.87 2215.87 1155.68 2215.69 1155.5C2215.11 1156.28 2214.49 1157.01 2213.8 1157.66C2214.3 1158.35 2214.39 1159.07 2214.07 1159.83C2213.53 1159.37 2212.89 1159.19 2212.18 1159.29C2212 1160.73 2211.82 1162.16 2211.64 1163.61C2210.92 1163.61 2210.2 1163.61 2209.48 1163.61C2209.57 1165.06 2209.48 1166.5 2209.21 1167.93C2208.47 1168.4 2207.66 1168.58 2206.78 1168.47C2207.05 1169.55 2207.15 1170.63 2207.05 1171.71C2206.83 1171.46 2206.56 1171.28 2206.24 1171.17C2205.05 1172.14 2204.42 1173.4 2204.35 1174.95C2202.74 1175.87 2202.01 1177.31 2202.19 1179.27C2201.64 1179.73 2201.01 1179.9 2200.3 1179.81C2200.56 1181.64 2199.83 1182.9 2198.14 1183.59C2198.25 1183.91 2198.43 1184.18 2198.68 1184.4C2197.76 1185.16 2197.4 1186.15 2197.6 1187.38C2196.88 1187.38 2196.15 1187.38 2195.43 1187.38C2195.43 1188.82 2195.43 1190.25 2195.43 1191.7C2194.72 1191.7 2193.99 1191.7 2193.27 1191.7C2193.38 1193.04 2193.11 1194.3 2192.46 1195.48C2191.84 1194.67 2191.39 1194.76 2191.11 1195.75C2190.72 1196.7 2190.54 1197.69 2190.57 1198.72C2189.85 1198.72 2189.13 1198.72 2188.41 1198.72C2188.41 1200.36 2188.23 1201.98 2187.87 1203.58C2187.15 1203.58 2186.43 1203.58 2185.71 1203.58C2186.12 1205.01 2186.21 1206.45 2185.98 1207.9C2185.53 1207.36 2185.08 1206.82 2184.63 1206.28C2184.03 1207.88 2183.49 1209.5 2183.01 1211.14C2181.75 1210.6 2181.39 1210.97 2181.93 1212.22C2181.07 1213.13 2180.71 1214.21 2180.85 1215.47C2180.13 1215.47 2179.41 1215.47 2178.69 1215.47C2178.59 1216.59 2178.77 1217.67 2179.23 1218.71C2178.49 1219.3 2177.86 1219.12 2177.34 1218.17C2176.7 1219.31 2176.33 1220.58 2176.26 1221.95C2175.71 1222.4 2175.08 1222.58 2174.37 1222.49C2174.48 1223.8 2174.3 1225.05 2173.83 1226.27C2173.18 1226.77 2172.47 1226.95 2171.67 1226.81C2171.92 1228.67 2171.29 1230.11 2169.78 1231.13C2169.67 1232.08 2169.4 1232.98 2168.97 1233.83C2168.46 1234.45 2168.01 1234.45 2167.61 1233.83C2167.44 1235.27 2167.25 1236.71 2167.07 1238.15C2166.62 1239.03 2166.08 1239.21 2165.45 1238.69C2164.93 1239.33 2164.66 1240.05 2164.64 1240.85C2164.03 1241.26 2163.41 1241.63 2162.75 1241.93C2163.18 1243.01 2162.91 1244 2161.94 1244.91C2162.12 1245.08 2162.3 1245.27 2162.48 1245.45C2161.91 1246.09 2161.19 1246.36 2160.32 1246.26C2160.28 1247.72 2160.1 1249.16 2159.78 1250.58C2159.06 1250.58 2158.34 1250.58 2157.62 1250.58C2157.62 1251.3 2157.62 1252.02 2157.62 1252.74C2157.08 1252.74 2156.54 1252.74 2156 1252.74C2155.8 1254.4 2155.44 1256.02 2154.92 1257.6C2153.07 1257.46 2152.53 1258.18 2153.3 1259.76C2152.99 1260.6 2152.63 1261.41 2152.22 1262.19C2151.71 1262.53 2151.26 1262.43 2150.87 1261.92C2150.6 1262.8 2150.51 1263.7 2150.6 1264.62C2149.89 1264.53 2149.25 1264.71 2148.71 1265.16C2148.55 1266.45 2148.28 1267.71 2147.9 1268.94C2147.25 1269.45 2146.54 1269.62 2145.74 1269.48C2144.33 1271.73 2143.61 1274.07 2143.58 1276.51C2142.86 1276.51 2142.13 1276.51 2141.42 1276.51C2141.5 1277.6 2141.42 1278.68 2141.15 1279.75C2140.76 1280.54 2140.13 1280.9 2139.25 1280.83C2139.42 1281.96 2139.24 1283.04 2138.71 1284.07C2138.4 1283.96 2138.13 1283.78 2137.9 1283.53C2137.16 1284.68 2136.62 1285.94 2136.28 1287.31C2135.74 1287.76 2135.11 1287.94 2134.39 1287.85C2134.63 1289.68 2134.18 1291.3 2133.04 1292.71C2132.86 1292.53 2132.68 1292.35 2132.5 1292.17C2131.89 1293.17 2131.62 1294.25 2131.69 1295.41C2131.15 1295.41 2130.61 1295.41 2130.07 1295.41C2130.03 1296.99 2129.58 1298.42 2128.72 1299.74C2128.18 1300.19 2127.54 1300.37 2126.83 1300.28C2127 1301.21 2127.09 1302.11 2127.1 1302.98C2126.55 1302.52 2125.92 1302.34 2125.21 1302.44C2125.06 1303.92 2124.7 1305.36 2124.13 1306.76C2123.01 1307.75 2122.11 1308.91 2121.43 1310.27C2121.61 1310.45 2121.79 1310.63 2121.97 1310.81C2121.4 1311.45 2120.67 1311.72 2119.81 1311.62C2119.81 1312.34 2119.81 1313.06 2119.81 1313.78C2119.17 1313.66 2118.63 1313.84 2118.19 1314.32C2117.8 1315.55 2117.53 1316.81 2117.38 1318.1C2116.83 1318.56 2116.2 1318.73 2115.49 1318.64C2115.49 1319.72 2115.49 1320.8 2115.49 1321.88C2114.77 1321.79 2114.14 1321.97 2113.6 1322.42C2113.84 1324.75 2112.84 1326.1 2110.62 1326.47C2111 1327.64 2110.82 1328.81 2110.08 1329.99C2109.64 1330.47 2109.1 1330.65 2108.46 1330.53C2108.55 1331.44 2108.46 1332.35 2108.19 1333.23C2107.79 1332.61 2107.35 1332.61 2106.84 1333.23C2106.28 1334.62 2105.91 1336.06 2105.76 1337.55C2105.22 1337.55 2104.68 1337.55 2104.14 1337.55C2104.3 1338.52 2104.12 1339.41 2103.6 1340.25C2102.33 1341.01 2101.42 1342.09 2100.9 1343.49C2101.35 1344 2101.44 1344.54 2101.17 1345.11C2100.63 1344.66 2099.99 1344.48 2099.28 1344.57C2099.17 1346.2 2098.99 1347.82 2098.74 1349.43C2098.02 1349.43 2097.3 1349.43 2096.58 1349.43C2096.48 1350.56 2096.66 1351.64 2097.12 1352.67C2096.94 1352.85 2096.76 1353.04 2096.58 1353.21C2096.22 1352.85 2095.86 1352.5 2095.5 1352.13C2094.43 1353.38 2093.89 1354.82 2093.88 1356.46C2093.16 1356.46 2092.44 1356.46 2091.72 1356.46C2091.89 1357.94 2091.71 1359.38 2091.18 1360.78C2089.95 1361.25 2089.41 1362.15 2089.56 1363.48C2088.84 1363.48 2088.11 1363.48 2087.4 1363.48C2087.4 1364.92 2087.4 1366.36 2087.4 1367.8C2086.68 1367.8 2085.95 1367.8 2085.24 1367.8C2085.32 1368.72 2085.23 1369.62 2084.97 1370.5C2082.82 1371.38 2082.01 1373 2082.53 1375.36C2081.82 1375.36 2081.09 1375.36 2080.37 1375.36C2080.42 1376.86 2080.15 1378.3 2079.56 1379.68C2078.74 1379.45 2078.11 1379.8 2077.67 1380.76C2078.18 1381.45 2078.26 1382.17 2077.94 1382.92C2077.54 1383.54 2077.09 1383.54 2076.59 1382.92C2075.84 1384.12 2075.21 1385.39 2074.7 1386.71C2074.05 1387.01 2073.42 1387.38 2072.81 1387.79C2073.29 1388.86 2073.2 1389.94 2072.54 1391.03C2072 1391.48 2071.36 1391.66 2070.65 1391.57C2070.54 1392.45 2070.71 1393.26 2071.19 1394C2070.34 1393.79 2069.53 1393.89 2068.76 1394.27C2068.45 1395.71 2068.18 1397.15 2067.95 1398.59C2067.23 1398.59 2066.51 1398.59 2065.79 1398.59C2065.87 1399.51 2065.78 1400.41 2065.52 1401.29C2064.75 1401.6 2064.3 1402.14 2064.17 1402.91Z" fill="#CED0CE"/>
</svg>
