<?xml version="1.0" encoding="utf-8"?>
<!-- Generator: Adobe Illustrator 27.3.1, SVG Export Plug-In . SVG Version: 6.00 Build 0)  -->
<svg version="1.1" id="Layer_1" xmlns="http://www.w3.org/2000/svg" xmlns:xlink="http://www.w3.org/1999/xlink" x="0px" y="0px"
	 viewBox="0 0 1080 1080" style="enable-background:new 0 0 1080 1080;" xml:space="preserve" width="100" height="100">
<style type="text/css">
	.st0{fill:#F1ECE6;}
	.st1{fill:#404040;}
	.st2{fill:#828282;}
</style>
<g>
	<g>
		<path class="st0" d="M673.01,623.23H408.72c-22.92,0-41.51-18.58-41.51-41.51V367.63c0-22.92,18.58-41.51,41.51-41.51h305.79
			v255.6C714.51,604.64,695.93,623.23,673.01,623.23z"/>
		<g>
			<path class="st1" d="M448.43,535.86c0-46.76,0-93.53,0-140.29c0.13-0.31,0.3-0.61,0.39-0.93c1.75-6.27,6.62-10.1,13.15-10.1
				c60.56-0.02,121.12-0.02,181.68,0c7.95,0,13.58,5.71,13.59,13.68c0.02,44.99,0.02,89.99-0.02,134.98c0,1.54-0.24,3.13-0.7,4.6
				c-1.8,5.72-6.76,9.09-13.27,9.09c-60.29,0.01-120.57,0.01-180.86,0c-0.34,0-0.68,0-1.02-0.02c-5.1-0.24-8.91-2.61-11.36-7.08
				C449.32,538.57,448.94,537.18,448.43,535.86z M643.85,494.07c0.05-1.13,0.11-1.78,0.11-2.43c0-30.51-0.01-61.02,0.04-91.53
				c0-1.83-0.43-2.41-2.35-2.41c-59.19,0.05-118.37,0.04-177.56,0.05c-0.76,0-1.53,0.12-2.2,0.17c0,31.12,0,61.97,0,93.18
				c0.71-0.79,1.17-1.28,1.6-1.78c15.43-17.92,30.82-35.86,46.32-53.72c1.33-1.53,3.14-2.89,5.01-3.64c4.18-1.68,8.17-0.12,11.62,4
				c16.61,19.85,33.23,39.7,49.85,59.54c0.45,0.54,0.93,1.06,1.48,1.68c8.16-8.17,16.33-15.96,24.03-24.2
				c6.15-6.58,12.12-6.71,18.66-0.31C627.88,479.94,635.76,486.72,643.85,494.07z"/>
			<path class="st1" d="M605.84,450.76c-10.03-0.01-18.15-8.07-18.23-18.1c-0.08-10.02,8.19-18.31,18.26-18.31
				c10.07,0.01,18.33,8.31,18.23,18.33C624.01,442.71,615.87,450.76,605.84,450.76z"/>
		</g>
	</g>
	<g>
		<path class="st2" d="M645.61,575.7c-19.89,0.06-36.07-15.9-36.28-35.78c-0.2-19.83,16.27-36.35,36.22-36.32
			c19.79,0.03,36.02,16.26,36.06,36.06C681.66,559.44,665.47,575.64,645.61,575.7z"/>
		<g>
			<path class="st0" d="M644.21,561.28h2.52c1.37,0,2.48-1.11,2.48-2.48v-38.29c0-1.37-1.11-2.48-2.48-2.48h-2.52
				c-1.37,0-2.48,1.11-2.48,2.48v38.29C641.73,560.17,642.84,561.28,644.21,561.28z"/>
			<path class="st0" d="M667.1,540.91v-2.52c0-1.37-1.11-2.48-2.48-2.48h-38.29c-1.37,0-2.48,1.11-2.48,2.48v2.52
				c0,1.37,1.11,2.48,2.48,2.48h38.29C665.99,543.4,667.1,542.28,667.1,540.91z"/>
		</g>
	</g>
</g>
</svg>
