<?xml version="1.0" encoding="utf-8"?>
<!-- Generator: Adobe Illustrator 27.3.1, SVG Export Plug-In . SVG Version: 6.00 Build 0)  -->
<svg version="1.1" id="Layer_1" xmlns="http://www.w3.org/2000/svg" xmlns:xlink="http://www.w3.org/1999/xlink" x="0px" y="0px"
	 viewBox="0 0 1080 1080" style="enable-background:new 0 0 1080 1080;" xml:space="preserve">
<style type="text/css">
	.st0{fill:#F1ECE6;}
	.st1{fill:none;stroke:#525252;stroke-width:10;stroke-miterlimit:85.45;}
	.st2{fill:none;stroke:#525252;stroke-width:10;stroke-linecap:round;stroke-miterlimit:85.45;}
</style>
<g>
	<path class="st0" d="M686.16,613.26H421.87c-22.92,0-41.51-18.58-41.51-41.51V357.67c0-22.92,18.58-41.51,41.51-41.51h305.79v255.6
		C727.66,594.68,709.08,613.26,686.16,613.26z"/>
	<g id="Group_8_00000175281579417403435540000013000830618532267676_" transform="translate(-1222.248 -664)">
		<path id="Path_43_00000038395920751966489970000005009628925244557469_" class="st1" d="M1826.65,1093.85
			c18.12,4.97,36.84-5.68,41.81-23.8c4.97-18.12-5.68-36.84-23.8-41.81c-18.12-4.97-36.84,5.68-41.81,23.8
			c-0.79,2.87-1.2,5.83-1.21,8.81C1801.56,1076.23,1811.82,1089.76,1826.65,1093.85z"/>
		<path id="Path_44_00000117644540228213702390000016997372346509981313_" class="st2" d="M1719.69,1159.91
			c14.3,3.94,29.08-4.46,33.02-18.76c0.63-2.28,0.95-4.63,0.96-6.99c0.01-12.18-8.1-22.87-19.83-26.16
			c-14.33-3.91-29.12,4.54-33.03,18.88C1696.9,1141.21,1705.35,1156,1719.69,1159.91z"/>
		<path id="Path_45_00000072978366068367134080000017576367584111495825_" class="st2" d="M1809.86,1218.96
			c12.74,4.05,26.36-2.99,30.41-15.74c4.05-12.74-2.99-26.36-15.74-30.41c-12.74-4.05-26.36,2.99-30.41,15.74
			c-0.84,2.64-1.22,5.4-1.12,8.17C1793.2,1207.01,1800.01,1215.99,1809.86,1218.96z"/>
		
			<line id="Line_20_00000183221424776101354630000017825754895685247155_" class="st2" x1="1805.11" y1="1080.15" x2="1742.66" y2="1110.75"/>
		
			<line id="Line_21_00000124863766212135460170000015053018072881018021_" class="st2" x1="1794.61" y1="1181.83" x2="1747.17" y2="1152.75"/>
	</g>
</g>
</svg>
