<?xml version="1.0" encoding="utf-8"?>
<!-- Generator: Adobe Illustrator 27.3.1, SVG Export Plug-In . SVG Version: 6.00 Build 0)  -->
<svg version="1.1" id="Layer_1" xmlns="http://www.w3.org/2000/svg" xmlns:xlink="http://www.w3.org/1999/xlink" x="0px" y="0px"
	 viewBox="0 0 960 960">
<style type="text/css">
	.st0{fill:#F1ECE6;}
	.st1{fill:#828282;}
	.st2{font-family:'MontaguSlab-Medium';}
	.st3{font-size:178.2677px;}
</style>
<path class="st0" d="M714.29,630.04H450.01c-22.92,0-41.51-18.58-41.51-41.51V374.44c0-22.92,18.58-41.51,41.51-41.51H755.8v255.6
	C755.8,611.46,737.21,630.04,714.29,630.04z"/>
<path class="st1" d="M469.57,459.07c0-28.86,0-57.72,0-86.58c0-4.45,0.97-5.41,5.41-5.41c57.72,0,115.43,0,173.15,0
	c4.44,0,5.41,0.97,5.41,5.41c0,42.39,0.01,84.77-0.03,127.16c0,1.48,0.37,2.38,1.7,3.24c12.76,8.26,18.78,23.27,15.45,38.22
	c-3.24,14.48-15.48,25.79-30.39,27.58c-14.77,1.77-26.44-3.76-34.89-15.96c-0.89-1.28-1.75-1.7-3.24-1.7
	c-42.39,0.04-84.77,0.03-127.16,0.03c-4.44,0-5.42-0.97-5.42-5.41C469.57,516.79,469.57,487.93,469.57,459.07z M646.17,498.41
	c0-41.43,0-82.71,0-123.92c-56.55,0-112.93,0-169.26,0c0,56.52,0,112.85,0,169.21c41.39,0,82.66,0,123.97,0
	C592.73,515.97,618.33,490.28,646.17,498.41z M639.12,529.42c0-1.11,0-1.92,0-2.74c0-3.83,0.04-7.66-0.02-11.49
	c-0.04-2.3-1.56-3.81-3.6-3.79c-2.04,0.01-3.51,1.53-3.57,3.83c-0.06,2.25-0.02,4.51-0.02,6.76c0,2.44,0,4.89,0,7.43
	c-4.83,0-9.33-0.02-13.83,0.01c-2.61,0.02-4.24,1.48-4.19,3.67c0.04,2.11,1.61,3.5,4.11,3.53c3.08,0.04,6.16,0.01,9.24,0.01
	c1.54,0,3.07,0,4.68,0c0,5.02-0.05,9.68,0.02,14.33c0.03,2.16,1.53,3.63,3.48,3.69c1.86,0.05,3.43-1.32,3.66-3.27
	c0.09-0.74,0.04-1.5,0.04-2.25c0-4.11,0-8.21,0-12.5c4.66,0,9.08,0.01,13.49,0c2.85-0.01,4.5-1.33,4.53-3.57
	c0.03-2.25-1.64-3.63-4.45-3.64C648.26,529.4,643.84,529.42,639.12,529.42z"/>
<text transform="matrix(1 0 0 1 493.3737 521.1684)" class="st2 st3">T</text>
</svg>
